<svg width="1000" height="666.66669" xmlns="http://www.w3.org/2000/svg">
 <metadata id="metadata8">image/svg+xml</metadata>

 <g>
  <title>background</title>
  <rect fill="none" id="canvas_background" height="402" width="582" y="-1" x="-1"/>
 </g>
 <g>
  <title>Layer 1</title>
  <path fill="#1e2348" fill-rule="evenodd" d="m813.838658,545.518805l-207.639998,0l0,121.147865l194.473331,0l13.166667,-121.147865" id="path16"/>
  <path fill="#1e2348" fill-rule="evenodd" d="m606.002661,258.918674c0,0 -18.606666,5.006667 -29.241333,28.025333c-10.638667,23.016 -36.544,95.681332 -43.022666,116.066665c-6.477333,20.386666 17.030666,107.619999 47.004,154.094532l39.382666,0c0,0 -38.042666,-116.283865 -39.68,-127.462532c-1.637333,-11.177333 35.998666,-76.281333 35.998666,-76.281333c10.381333,-32.612 9.754667,-65.182666 -10.441333,-94.442666" id="path18"/>
  <path fill="#f35f66" fill-rule="evenodd" d="m709.501326,144.562675l0,0c17.477333,0 31.776,24.449333 31.776,54.334666l0,44.130666c0,29.886666 -14.298667,54.335999 -31.776,54.335999l0,0c-17.474666,0 -31.774666,-24.449333 -31.774666,-54.335999l0,-44.130666c0,-29.885333 14.3,-54.334666 31.774666,-54.334666" id="path20"/>
  <path fill="#1e2348" fill-rule="evenodd" d="m814.030658,258.918674c0,0 18.606666,5.006667 29.242666,28.025333c10.637333,23.016 36.544,95.681332 43.021333,116.066665c6.48,20.386666 -17.030666,107.619999 -47.002666,154.094532l-39.384,0c0,0 38.045333,-116.283865 39.681333,-127.462532c1.636,-11.177333 -36,-76.281333 -36,-76.281333c-10.38,-32.612 -9.754667,-65.182666 10.441333,-94.442666" id="path22"/>
  <path fill="#282e6a" fill-rule="evenodd" d="m717.834659,256.045341l-5.146667,0.616l-2.669333,1.826667l-2.673333,-1.826667l-5.146667,-0.616l-30.328,-23.794666l-65.867999,26.669333l-3.28,63.205333c4.92,62.811999 20.390666,163.526665 20.390666,168.397332c0,4.868 -10.444,38.98 -16.914666,59.722666l103.819999,0l103.819999,0c-6.474667,-20.742666 -16.917333,-54.854666 -16.917333,-59.722666c0,-4.870667 15.469333,-105.585332 20.390666,-168.397332l-3.278667,-63.205333l-65.869333,-26.669333l-30.329333,23.794666" id="path24"/>
  <path fill="#95cdd8" fill-rule="evenodd" d="m703.233326,257.110674l3.081333,-0.449333c0,0 0.606667,0.565333 0.696,1.533333c0.090667,0.966667 0.156,3.808 0.156,3.808l-2.354667,0.734667c0,0 -4.666667,0.116 -4.621333,-0.058667c0.042667,-0.173333 3.042667,-5.568 3.042667,-5.568" id="path26"/>
  <path fill="#95cdd8" fill-rule="evenodd" d="m715.770659,257.110674l-3.082667,-0.449333c0,0 -0.608,0.565333 -0.696,1.533333c-0.088,0.966667 -0.157333,3.808 -0.157333,3.808l2.356,0.734667c0,0 4.666667,0.116 4.624,-0.058667c-0.045333,-0.173333 -3.044,-5.568 -3.044,-5.568" id="path28"/>
  <path fill="#ffffff" fill-rule="evenodd" d="m741.277326,222.177341c0,0 2.738667,-0.410667 3.684,0c0.946667,0.409333 4.157333,11.797333 6.142667,14.593333c0,0 1.796,2.3 0.472,6.164c-1.321333,3.864 -18.616,35.593333 -18.616,35.593333c0,0 -1.228,1.685333 -3.212,0.041333c-1.985333,-1.644 -17.06,-21.905333 -17.06,-21.905333l28.589333,-31.94l0,-2.546667" id="path30"/>
  <path fill="#ffffff" fill-rule="evenodd" d="m677.725326,222.494674c0,0 -2.738667,-0.412 -3.685333,0c-0.942667,0.410667 -4.156,11.48 -6.141333,14.276c0,0 -1.796,2.3 -0.473333,6.164c1.324,3.864 18.617333,35.593333 18.617333,35.593333c0,0 1.229333,1.685333 3.214667,0.041333c1.982667,-1.644 17.057333,-21.905333 17.057333,-21.905333l-28.589333,-31.622666l0,-2.546667" id="path32"/>
  <path fill="#f46a5d" fill-rule="evenodd" d="m767.190659,135.524009c0.430667,0.06 0.853333,0.133333 1.270667,0.224l0.012,0.002667l-0.002667,-0.001333c7.713333,1.672 13.532,8.489333 13.633333,16.716c0.113333,9.561333 -7.548,17.408 -17.109333,17.522666c-9.561333,0.113333 -17.408,-7.544 -17.522666,-17.104c-0.069333,-5.56 2.490667,-10.536 6.521333,-13.752c-0.474667,5.108 0.293333,11.441333 6.813333,12.12l-0.118667,-9.985333c-0.050667,-4.042667 3.734667,-5.874667 6.502667,-5.742667" id="path34"/>
  <path fill="#f46a5d" fill-rule="evenodd" d="m653.081327,135.504009c-0.430667,0.056 -0.853333,0.122667 -1.272,0.208l-0.012,0.005333l0,-0.002667c-7.736,1.564 -13.646667,8.3 -13.862667,16.524c-0.246667,9.56 7.304,17.512 16.861333,17.758666c9.561333,0.249333 17.514666,-7.3 17.762666,-16.858666c0.145333,-5.557333 -2.345333,-10.569333 -6.332,-13.841333c0.405333,5.114667 -0.450667,11.436 -6.98,12.024l0.257333,-9.982667c0.105333,-4.04 -3.652,-5.925333 -6.422667,-5.834667" id="path36"/>
  <path fill="#f89b6f" fill-rule="evenodd" d="m710.021326,222.238674c-32.324,0 -59.290666,-39.886666 -59.290666,-71.377333l0,-41.834666c0,-32.609333 26.681333,-59.286666 59.281333,-59.286666l0.009333,0c32.6,0 59.283999,26.677333 59.283999,59.286666l0,40.948c0,34.512 -23.524,72.263999 -59.283999,72.263999" id="path38"/>
  <path fill="#f35f66" fill-rule="evenodd" d="m750.717326,149.313342c-5.518667,0.102667 -9.909333,4.658667 -9.809333,10.178667c0.102667,5.517333 4.661333,9.909333 10.178667,9.805333c5.518667,-0.102667 9.909333,-4.658667 9.806667,-10.177333c-0.102667,-5.517333 -4.658667,-9.908 -10.176,-9.806667" id="path40"/>
  <path fill="#f35f66" fill-rule="evenodd" d="m668.94666,150.904009c-5.516,0.101333 -9.908,4.658667 -9.805333,10.177333c0.101333,5.517333 4.657333,9.910667 10.176,9.808c5.517333,-0.102667 9.909333,-4.66 9.806667,-10.177333c-0.101333,-5.517333 -4.658667,-9.909333 -10.177333,-9.808" id="path42"/>
  <path fill="#1e2348" fill-rule="evenodd" d="m690.495993,124.852009c1.010667,0.925333 1.082667,2.497333 0.161333,3.510667c-0.924,1.012 -2.498667,1.085333 -3.510667,0.161333c-0.017333,-0.014667 -6.046667,-5.697333 -14.234667,-3.626667c-1.332,0.337333 -2.692,-0.473333 -3.028,-1.806667c-0.336,-1.333333 0.470667,-2.690667 1.804,-3.028c10.814667,-2.734667 18.785333,4.772 18.808,4.789333" id="path44"/>
  <path fill="#1e2348" fill-rule="evenodd" d="m748.385326,120.522676c1.326667,0.345333 2.124,1.705333 1.778667,3.029333c-0.346667,1.328 -1.706667,2.124 -3.032,1.778667c-0.02,-0.006667 -8.004,-2.224 -14.285333,3.418667c-1.024,0.918667 -2.604,0.836 -3.521333,-0.186667c-0.92,-1.024 -0.834667,-2.604 0.188,-3.521333c8.296,-7.456 18.842666,-4.525333 18.872,-4.518667" id="path46"/>
  <path fill="#f9af89" fill-rule="evenodd" d="m711.611993,152.200009c1.108,3 3.038667,8.430667 2.873333,9.344c-0.233333,1.273333 -6.797333,2.452 -8.522667,0.776c-1.148,-1.114667 0.274667,-6.014667 1.521333,-9.312c1.697333,-4.496 2.641333,-4.846667 4.128,-0.808" id="path48"/>
  <path fill="#090e13" fill-rule="evenodd" d="m722.477326,175.897342c0,6.88 -5.58,12.458667 -12.458667,12.458667c-6.881333,0 -12.458667,-5.578667 -12.458667,-12.458667c0,-1.264 1.029333,-2.292 2.293333,-2.292l20.326666,0c1.264,0 2.297333,1.028 2.297333,2.292" id="path50"/>
  <path fill="#ffffff" fill-rule="evenodd" d="m701.109326,173.605342l17.818666,0l0,2.108c0,1.094667 -0.898667,1.993333 -1.997333,1.993333l-13.825333,0c-1.1,0 -1.996,-0.898667 -1.996,-1.993333l0,-2.108" id="path52"/>
  <path fill="#f1476f" fill-rule="evenodd" d="m719.046659,184.481342c-2.269333,2.386667 -5.476,3.874667 -9.028,3.874667c-3.553333,0 -6.758667,-1.488 -9.028,-3.874667c2.269333,-2.386667 5.474667,-3.874667 9.028,-3.874667c3.552,0 6.758667,1.488 9.028,3.874667" id="path54"/>
  <path fill="#1e2348" fill-rule="evenodd" d="m681.019993,147.912009c3.933333,0 7.14,-3.209333 7.14,-7.142667c0,-3.932 -3.206667,-7.138667 -7.14,-7.138667c-3.932,0 -7.14,3.206667 -7.14,7.138667c0,3.933333 3.208,7.142667 7.14,7.142667" id="path56"/>
  <path fill="#1e2348" fill-rule="evenodd" d="m739.013326,147.912009c3.932,0 7.141333,-3.209333 7.141333,-7.142667c0,-3.932 -3.209333,-7.138667 -7.141333,-7.138667c-3.933333,0 -7.138667,3.206667 -7.138667,7.138667c0,3.933333 3.205333,7.142667 7.138667,7.142667" id="path58"/>
  <path fill="#f03562" fill-rule="evenodd" d="m692.48266,258.982674c0.38,-1.902667 2.12,-1.521333 2.12,-1.521333l10.976,5.594667l4.44,5.164l-4.44,5.164l-10.976,5.596c0,0 -1.74,0.38 -2.12,-1.522667l3.314667,-9.237333l-3.314667,-9.237333" id="path60"/>
  <path fill="#f03562" fill-rule="evenodd" d="m727.555993,258.982674c-0.384,-1.902667 -2.121333,-1.521333 -2.121333,-1.521333l-10.98,5.594667l-4.436,5.164l4.436,5.164l10.98,5.596c0,0 1.737333,0.38 2.121333,-1.522667l-3.316,-9.237333l3.316,-9.237333" id="path62"/>
  <path fill="#dd244c" fill-rule="evenodd" d="m707.697326,260.937341l4.641333,0c1.164,0 2.117333,0.952 2.117333,2.117333l0,10.330667c0,1.164 -0.953333,2.116 -2.117333,2.116l-4.641333,0c-1.165333,0 -2.118667,-0.952 -2.118667,-2.116l0,-10.330667c0,-1.165333 0.953333,-2.117333 2.118667,-2.117333" id="path64"/>
  <path fill="#95cdd8" fill-rule="evenodd" d="m753.862659,196.653341c-0.492,0.054667 -0.938667,-0.301333 -0.992,-0.794667c-0.056,-0.494667 0.301333,-0.94 0.796,-0.994667l0.316,-0.034667c5.374667,-0.673333 9.773333,-5.626667 12.729333,-11.626667c2.285333,-4.637333 3.694667,-9.872 4.038667,-14.268c0.633333,-0.232 1.250667,-0.502667 1.848,-0.804c-0.226667,4.814667 -1.732,10.710667 -4.272,15.868c-3.197333,6.489333 -8.054667,11.861333 -14.125333,12.62l-0.338667,0.034667" id="path66"/>
  <path fill="#95cdd8" fill-rule="evenodd" d="m666.177327,196.653341c0.493333,0.054667 0.938667,-0.301333 0.994667,-0.794667c0.053333,-0.494667 -0.304,-0.94 -0.796,-0.994667l-0.318667,-0.034667c-5.373333,-0.673333 -9.772,-5.626667 -12.726667,-11.626667c-2.284,-4.637333 -3.697333,-9.872 -4.037333,-14.268c-0.636,-0.232 -1.252,-0.502667 -1.849333,-0.804c0.226667,4.814667 1.730667,10.710667 4.274667,15.868c3.194667,6.489333 8.053333,11.861333 14.121333,12.62l0.337333,0.034667" id="path68"/>
  <path fill="#1e2348" fill-rule="evenodd" d="m686.09466,91.378676c-6.314667,0 -18.518666,2.992 -18.518666,15.597333c0,12.606667 -2.392,22.605333 -10.433333,22.605333c0,0 0,4.361333 0,9.890667c0,5.528 -0.538667,11.12 -5.754667,11.12c0,-11.893333 -3.626667,-16.566666 -3.626667,-16.566666c0,0 0,-15.912 0,-29.825333c0,-13.909333 3.909333,-32.601333 22.169333,-45.426666c23.626666,-16.594666 56.547999,-16.594666 80.178666,0c18.257333,12.825333 22.168,31.517333 22.168,45.426666c0,13.913333 0,29.825333 0,29.825333c0,0 -3.624,4.673333 -3.624,16.566666c-5.218667,0 -5.76,-5.592 -5.76,-11.12c0,-5.529333 0,-9.890667 0,-9.890667c-8.041333,0 -10.433333,-9.998667 -10.433333,-22.605333c0,-12.605333 -12.201333,-15.597333 -18.516,-15.597333c-15.949333,0 -31.898666,0 -47.849333,0" id="path70"/>
  <path fill="#1e2348" fill-rule="evenodd" d="m647.757327,134.028009c0,0 5.078667,30.357333 5.078667,44.702666c0,14.348 17.526666,36.806666 32.741333,42.024c15.214667,5.217333 20.508,4.890667 24.437333,4.890667c3.929333,0 9.224,0.326667 24.436,-4.890667c15.216,-5.217333 34.012,-27.358666 34.012,-41.705333c0,-14.346667 3.812,-45.021333 3.812,-45.021333l-8.105333,-4.762667c0,8.141333 -3.06,26.894666 -3.664,37.216c-0.621333,10.642667 -8.646667,11.626667 -19.050666,14.414667c-7.422667,1.988 -9.08,21.936 -15.062667,21.936c-5.984,0 -9.668,-2.296 -11.336,-2.990667c-1.669333,-0.697333 -5.041333,-0.714667 -5.041333,-0.714667c0,0 -3.369333,0.017333 -5.041333,0.714667c-1.666667,0.694667 -5.353333,2.990667 -11.336,2.990667c-5.98,0 -6.368,-20.265333 -13.793333,-22.253333c-10.401333,-2.786667 -18.426666,-3.773333 -19.049333,-14.414667c-0.605333,-10.321333 -4.936,-28.757333 -4.936,-36.898666l-8.101333,4.762667" id="path72"/>
  <path fill="#282e6a" fill-rule="evenodd" d="m762.893326,130.513342l-0.004,0.186667l0,5.938667c0,2.581333 2.110667,4.693333 4.694667,4.693333l0,0c2.581333,0 4.693333,-2.112 4.693333,-4.693333l0,-4.138667l0,-1.8l0,-26.5c0,-3.516 -0.249333,-7.34 -0.92,-11.296l-0.008,-0.005333c-10.822667,-5.296 -24.456,2.254667 -24.6,2.337333c3.266667,2.382667 5.710667,6.098667 5.710667,11.74c0,12.606667 2.392,22.605333 10.433333,22.605333l0,0.932zm-89.606666,-35.276c-3.265333,2.385333 -5.710667,6.098667 -5.710667,11.738667c0,12.606667 -2.392,22.605333 -10.433333,22.605333l0,1.118667l0,1.8l0,4.138667c0,2.581333 -2.109333,4.693333 -4.694667,4.693333l0,0c-2.58,0 -4.690667,-2.112 -4.690667,-4.693333l0,-5.938667l0.004,-0.186667l0,-26.313333c0,-3.517333 0.250667,-7.342667 0.918667,-11.301333c10.882667,-5.324 24.604,2.338667 24.604,2.338667l0.002667,0l0,0" id="path74"/>
  <path fill="#95cdd8" fill-rule="evenodd" d="m758.658659,159.824008c-0.149333,0.504 -0.68,0.789333 -1.184,0.641333c-0.501333,-0.150667 -0.790667,-0.681333 -0.641333,-1.184c0.017333,-0.054667 4.817333,-16.318667 13.057333,-23.081333l0.498667,2.014667c-7.288,6.561333 -11.716,21.557333 -11.730667,21.609333" id="path76"/>
  <path fill="#95cdd8" fill-rule="evenodd" d="m661.383993,159.824008c0.148,0.504 0.678667,0.789333 1.181333,0.641333c0.505333,-0.150667 0.792,-0.681333 0.641333,-1.184c-0.016,-0.054667 -4.813333,-16.318667 -13.057333,-23.081333l-0.496,2.014667c7.288,6.561333 11.713333,21.557333 11.730667,21.609333" id="path78"/>
  <path fill="#ffffff" fill-rule="evenodd" d="m710.017326,152.542675l48.785333,2.606667c0,0 1.948,0.561333 1.889333,2.352c-0.058667,1.793333 -1.768,36.356 -1.768,36.356c0,0 -0.082667,3.109333 -2.016,5.798667c-1.933333,2.689333 -17.286666,27.990666 -46.890666,27.990666c-29.606666,0 -44.96,-25.301333 -46.893333,-27.990666c-1.932,-2.689333 -2.014667,-5.798667 -2.014667,-5.798667c0,0 -1.709333,-34.562666 -1.768,-36.356c-0.058667,-1.790667 1.892,-2.352 1.892,-2.352l48.784,-2.606667" id="path80"/>
  <path fill="#c3e5e8" fill-rule="evenodd" d="m710.021326,156.297342l-46.881333,2.504c0.413333,11.608 1.198667,23.277333 1.717333,34.888c0.056,1.237333 0.598667,2.782667 1.316,3.78c1.306667,1.816 2.472,3.594667 3.877333,5.370667c2.566667,3.249333 5.438667,6.278667 8.584,8.973333c8.953333,7.664 19.501333,12.085333 31.386666,12.085333c11.885333,0 22.432,-4.421333 31.382666,-12.085333c3.149333,-2.694667 6.021333,-5.724 8.589333,-8.973333c1.402667,-1.776 2.569333,-3.554667 3.874667,-5.370667c0.716,-0.997333 1.26,-2.542667 1.314667,-3.78c0.52,-11.610667 1.308,-23.28 1.716,-34.888l-46.877333,-2.504" id="path82"/>
  <path fill="#95cdd8" fill-rule="evenodd" d="m755.334659,190.448008c0.161333,-3.326667 0.34,-6.657333 0.518667,-9.986667l-32.242666,-2.253333l31.724,12.24zm-90.546666,1.705333l0.069333,1.536c0.056,1.237333 0.598667,2.782667 1.316,3.78c1.306667,1.816 2.472,3.594667 3.877333,5.370667c2.566667,3.249333 5.438667,6.278667 8.584,8.973333c8.953333,7.664 19.501333,12.085333 31.386666,12.085333c11.885333,0 22.432,-4.421333 31.382666,-12.085333c3.149333,-2.694667 6.021333,-5.724 8.589333,-8.973333c1.402667,-1.776 2.569333,-3.554667 3.874667,-5.370667c0.197333,-0.273333 0.378667,-0.586667 0.542667,-0.922667c0,0 -7.6,8.225333 -33.994666,8.225333c-26.394666,0 -55.627999,-12.618667 -55.627999,-12.618667zm-0.953333,-18.270666c0.238667,4.537333 0.493333,9.077333 0.725333,13.612l43.245333,-16.682666l-43.970666,3.070667l0,0" id="path84"/>
  <path fill="#ddf0f1" fill-rule="evenodd" d="m225.206664,258.918674c0,0 -18.606666,5.006667 -29.241333,28.025333c-10.636,23.016 -36.545333,95.681332 -43.021333,116.066665c-6.478667,20.386666 17.030666,107.619999 47.004,154.094532l39.382666,0c0,0 -38.045333,-116.283865 -39.681333,-127.462532c-1.636,-11.177333 36.001333,-76.281333 36.001333,-76.281333c10.378667,-32.612 9.753333,-65.182666 -10.444,-94.442666" id="path86"/>
  <path fill="#f35f66" fill-rule="evenodd" d="m328.707997,144.562675l0,0c17.476,0 31.773333,24.449333 31.773333,54.334666l0,44.130666c0,29.886666 -14.297333,54.335999 -31.773333,54.335999l0,0c-17.478666,0 -31.776,-24.449333 -31.776,-54.335999l0,-44.130666c0,-29.885333 14.297333,-54.334666 31.776,-54.334666" id="path88"/>
  <path fill="#ddf0f1" fill-rule="evenodd" d="m433.237329,258.918674c0,0 18.605333,5.006667 29.24,28.025333c10.636,23.016 36.544,95.681332 43.021333,116.066665c6.48,20.386666 -17.030666,107.619999 -47.002666,154.094532l-39.384,0c0,0 38.045333,-116.283865 39.682666,-127.462532c1.634667,-11.177333 -36.001333,-76.281333 -36.001333,-76.281333c-10.38,-32.612 -9.752,-65.182666 10.444,-94.442666" id="path90"/>
  <path fill="#ffffff" fill-rule="evenodd" d="m337.038663,256.045341l-5.145333,0.616l-2.670667,1.826667l-2.673333,-1.826667l-5.146667,-0.616l-30.328,-23.794666l-65.866666,26.669333l-3.282667,63.205333c4.921333,62.811999 20.392,163.526665 20.392,168.397332c0,4.868 -10.444,38.98 -16.916,59.722666l103.821332,0l103.819999,0c-6.473333,-20.742666 -16.916,-54.854666 -16.916,-59.722666c0,-4.870667 15.470667,-105.585332 20.390666,-168.397332l-3.28,-63.205333l-65.869333,-26.669333l-30.329333,23.794666" id="path92"/>
  <path fill="#f03562" fill-rule="evenodd" d="m335.807997,272.612007l1.417333,7.562667l14.362667,187.254665l-22.88,48.662666l-22.882666,-48.662666l14.361333,-187.254665l1.417333,-7.562667l7.104,4.602667l7.1,-4.602667" id="path94"/>
  <path fill="#dd244c" fill-rule="evenodd" d="m335.807997,272.612007l1.417333,7.562667l14.362667,187.254665l-22.88,48.661333c0,0 13.436,-41.908 13.970667,-48.402666c0.534667,-6.494667 -8.086667,-185.082665 -10.618667,-186.746665c-2.532,-1.661333 -7.569333,-1.502667 -7.569333,-1.502667l3.22,-2.868l0.997333,0.644l7.1,-4.602667" id="path96"/>
  <path fill="#95cdd8" fill-rule="evenodd" d="m322.438663,257.110674l3.08,-0.449333c0,0 0.608,0.565333 0.697333,1.533333c0.089333,0.966667 0.154667,3.808 0.154667,3.808l-2.354667,0.734667c0,0 -4.665333,0.116 -4.622667,-0.058667c0.045333,-0.173333 3.045333,-5.568 3.045333,-5.568" id="path98"/>
  <path fill="#95cdd8" fill-rule="evenodd" d="m334.97333,257.110674l-3.078667,-0.449333c0,0 -0.609333,0.565333 -0.697333,1.533333c-0.088,0.966667 -0.154667,3.808 -0.154667,3.808l2.353333,0.734667c0,0 4.665333,0.116 4.622667,-0.058667c-0.046667,-0.173333 -3.045333,-5.568 -3.045333,-5.568" id="path100"/>
  <path fill="#f03562" fill-rule="evenodd" d="m320.186663,280.174674l-6.710667,-14.713333c5.8,-5.454667 24.66,-5.454667 30.46,0l-6.710667,14.713333c-4.726667,-1.250667 -12.310667,-1.250667 -17.038666,0" id="path102"/>
  <path fill="#dd244c" fill-rule="evenodd" d="m328.858663,261.370674c6.113333,0.021333 12.2,1.385333 15.077333,4.090667l-6.710667,14.713333c-1.824,-0.48 -4.073333,-0.778667 -6.421333,-0.888c1.266667,-1.018667 2.934667,-2.416 2.989333,-2.750667c0.088,-0.54 -0.021333,-13.2 -0.554667,-13.414667l-4.38,-1.750667zm-12.709333,9.952l-2.673333,-5.861333c2.088,-1.961333 5.864,-3.218667 10.113333,-3.769333l-7.44,9.630667l0,0" id="path104"/>
  <path fill="#c3e5e8" fill-rule="evenodd" d="m360.479996,222.333341c0,0 2.742667,-0.409333 3.686667,0c0.944,0.413333 4.157333,11.641333 6.142667,14.437333c0,0 1.794667,2.3 0.472,6.164c-1.322667,3.864 -18.616,35.593333 -18.616,35.593333c0,0 -1.229333,1.685333 -3.214667,0.041333c-1.982667,-1.644 -17.057333,-21.905333 -17.057333,-21.905333l28.586666,-31.781333l0,-2.549333" id="path106"/>
  <path fill="#c3e5e8" fill-rule="evenodd" d="m296.931997,221.700008c0,0 -2.741333,-0.409333 -3.685333,0c-0.944,0.410667 -4.158667,12.274667 -6.142667,15.070667c0,0 -1.797333,2.3 -0.473333,6.164c1.322667,3.864 18.614666,35.593333 18.614666,35.593333c0,0 1.232,1.685333 3.214667,0.041333c1.984,-1.644 17.058666,-21.905333 17.058666,-21.905333l-28.586666,-32.416l0,-2.548" id="path108"/>
  <path fill="#f46a5d" fill-rule="evenodd" d="m386.395996,135.524009c0.429333,0.06 0.849333,0.133333 1.270667,0.224l0.012,0.002667l-0.002667,-0.001333c7.714667,1.672 13.532,8.489333 13.632,16.716c0.112,9.561333 -7.548,17.408 -17.106666,17.522666c-9.566667,0.113333 -17.410666,-7.544 -17.525333,-17.104c-0.069333,-5.56 2.490667,-10.536 6.524,-13.752c-0.477333,5.108 0.290667,11.441333 6.810667,12.12l-0.118667,-9.985333c-0.049333,-4.042667 3.734667,-5.874667 6.504,-5.742667" id="path110"/>
  <path fill="#f46a5d" fill-rule="evenodd" d="m272.285331,135.504009c-0.430667,0.056 -0.852,0.122667 -1.270667,0.208l-0.014667,0.005333l0,-0.002667c-7.732,1.564 -13.644,8.3 -13.861333,16.524c-0.246667,9.56 7.305333,17.512 16.862666,17.758666c9.561333,0.249333 17.512,-7.3 17.761333,-16.858666c0.146667,-5.557333 -2.345333,-10.569333 -6.332,-13.841333c0.405333,5.114667 -0.450667,11.436 -6.98,12.024l0.257333,-9.982667c0.106667,-4.04 -3.652,-5.925333 -6.422667,-5.834667" id="path112"/>
  <path fill="#f89b6f" fill-rule="evenodd" d="m329.226663,222.238674c-32.326666,0 -59.291999,-39.886666 -59.291999,-71.377333l0,-41.834666c0,-32.609333 26.681333,-59.286666 59.281333,-59.286666l0.010667,0c32.601333,0 59.281333,26.677333 59.281333,59.286666l0,40.948c0,34.512 -23.522666,72.263999 -59.281333,72.263999" id="path114"/>
  <path fill="#f35f66" fill-rule="evenodd" d="m369.92133,149.313342c-5.517333,0.102667 -9.910667,4.658667 -9.809333,10.178667c0.102667,5.517333 4.662667,9.909333 10.18,9.805333c5.517333,-0.102667 9.908,-4.658667 9.806667,-10.177333c-0.1,-5.517333 -4.658667,-9.908 -10.177333,-9.806667" id="path116"/>
  <path fill="#f35f66" fill-rule="evenodd" d="m288.154664,150.904009c-5.521333,0.101333 -9.912,4.658667 -9.810667,10.177333c0.102667,5.517333 4.66,9.910667 10.178667,9.808c5.517333,-0.102667 9.908,-4.66 9.806667,-10.177333c-0.104,-5.517333 -4.657333,-9.909333 -10.174667,-9.808" id="path118"/>
  <path fill="#1e2348" fill-rule="evenodd" d="m309.53333,121.810676c1.249333,0.568 1.802667,2.04 1.237333,3.289333c-0.565333,1.246667 -2.04,1.802667 -3.289333,1.234667c-0.018667,-0.008 -7.509333,-3.550667 -14.658667,0.944c-1.164,0.732 -2.706667,0.381333 -3.438667,-0.784c-0.732,-1.164 -0.38,-2.705333 0.784,-3.437333c9.441333,-5.937333 19.338666,-1.257333 19.365333,-1.246667" id="path120"/>
  <path fill="#1e2348" fill-rule="evenodd" d="m368.16133,122.918675c1.198667,0.665333 1.630667,2.178667 0.966667,3.376c-0.666667,1.197333 -2.18,1.632 -3.377333,0.964c-0.02,-0.009333 -7.198667,-4.149333 -14.690667,-0.250667c-1.218667,0.634667 -2.726667,0.16 -3.362667,-1.06c-0.634667,-1.221333 -0.158667,-2.729333 1.061333,-3.362667c9.893333,-5.150667 19.377333,0.318667 19.402666,0.333333" id="path122"/>
  <path fill="#f9af89" fill-rule="evenodd" d="m330.815997,152.200009c1.108,3 3.037333,8.430667 2.872,9.344c-0.230667,1.273333 -6.794667,2.452 -8.521333,0.776c-1.146667,-1.114667 0.276,-6.014667 1.522667,-9.312c1.696,-4.496 2.64,-4.846667 4.126667,-0.808" id="path124"/>
  <path fill="#090e13" fill-rule="evenodd" d="m341.679997,175.897342c0,6.88 -5.58,12.458667 -12.457333,12.458667c-6.88,0 -12.458667,-5.578667 -12.458667,-12.458667c0,-1.264 1.029333,-2.292 2.293333,-2.292l20.328,0c1.264,0 2.294667,1.028 2.294667,2.292" id="path126"/>
  <path fill="#ffffff" fill-rule="evenodd" d="m320.311997,173.605342l17.818666,0l0,2.108c0,1.094667 -0.897333,1.993333 -1.996,1.993333l-13.825333,0c-1.098667,0 -1.997333,-0.898667 -1.997333,-1.993333l0,-2.108" id="path128"/>
  <path fill="#f1476f" fill-rule="evenodd" d="m338.250663,184.481342c-2.270667,2.386667 -5.474667,3.874667 -9.028,3.874667c-3.552,0 -6.76,-1.488 -9.028,-3.874667c2.268,-2.386667 5.476,-3.874667 9.028,-3.874667c3.553333,0 6.757333,1.488 9.028,3.874667" id="path130"/>
  <path fill="#1e2348" fill-rule="evenodd" d="m300.22533,147.912009c3.932,0 7.14,-3.209333 7.14,-7.142667c0,-3.932 -3.208,-7.138667 -7.14,-7.138667c-3.934667,0 -7.141333,3.206667 -7.141333,7.138667c0,3.933333 3.206667,7.142667 7.141333,7.142667" id="path132"/>
  <path fill="#1e2348" fill-rule="evenodd" d="m358.219996,147.912009c3.930667,0 7.14,-3.209333 7.14,-7.142667c0,-3.932 -3.209333,-7.138667 -7.14,-7.138667c-3.934667,0 -7.141333,3.206667 -7.141333,7.138667c0,3.933333 3.206667,7.142667 7.141333,7.142667" id="path134"/>
  <path fill="#95cdd8" fill-rule="evenodd" d="m375.266663,161.005342c-0.141333,0.476 -0.644,0.746667 -1.121333,0.605333c-0.476,-0.141333 -0.746667,-0.644 -0.605333,-1.12c0.014667,-0.053333 4.557333,-15.446667 12.36,-21.850666l0.469333,1.908c-6.897333,6.212 -11.089333,20.406666 -11.102667,20.457333" id="path136"/>
  <path fill="#95cdd8" fill-rule="evenodd" d="m373.067996,196.653341c-0.493333,0.054667 -0.938667,-0.301333 -0.993333,-0.794667c-0.053333,-0.494667 0.301333,-0.94 0.796,-0.994667l0.316,-0.034667c5.376,-0.673333 9.773333,-5.626667 12.729333,-11.626667c2.284,-4.637333 3.696,-9.872 4.038667,-14.268c0.633333,-0.232 1.250667,-0.502667 1.846667,-0.804c-0.225333,4.814667 -1.730667,10.710667 -4.272,15.868c-3.196,6.489333 -8.054667,11.861333 -14.124,12.62l-0.337333,0.034667" id="path138"/>
  <path fill="#95cdd8" fill-rule="evenodd" d="m283.18533,161.005342c0.141333,0.476 0.642667,0.746667 1.12,0.605333c0.476,-0.141333 0.746667,-0.644 0.606667,-1.12c-0.017333,-0.053333 -4.558667,-15.446667 -12.36,-21.850666l-0.472,1.908c6.9,6.212 11.090667,20.406666 11.105333,20.457333" id="path140"/>
  <path fill="#95cdd8" fill-rule="evenodd" d="m285.38133,196.653341c0.494667,0.054667 0.938667,-0.301333 0.996,-0.794667c0.053333,-0.494667 -0.304,-0.94 -0.797333,-0.994667l-0.318667,-0.034667c-5.372,-0.673333 -9.772,-5.626667 -12.726667,-11.626667c-2.284,-4.637333 -3.697333,-9.872 -4.038667,-14.268c-0.633333,-0.232 -1.250667,-0.502667 -1.848,-0.804c0.225333,4.814667 1.732,10.710667 4.272,15.868c3.197333,6.489333 8.053333,11.861333 14.125333,12.62l0.336,0.034667" id="path142"/>
  <path fill="#ffffff" fill-rule="evenodd" d="m329.22133,154.112009l46.18,2.466667c0,0 1.844,0.530667 1.790667,2.228c-0.054667,1.694667 -1.672,34.412 -1.672,34.412c0,0 -0.08,2.945333 -1.909333,5.490667c-1.829333,2.545333 -16.365333,26.496 -44.389333,26.496c-28.024,0 -42.556,-23.950666 -44.388,-26.496c-1.830667,-2.545333 -1.909333,-5.490667 -1.909333,-5.490667c0,0 -1.617333,-32.717333 -1.670667,-34.412c-0.056,-1.697333 1.789333,-2.228 1.789333,-2.228l46.178666,-2.466667" id="path144"/>
  <path fill="#c3e5e8" fill-rule="evenodd" d="m329.226663,157.665342l-44.377333,2.370667c0.388,10.989333 1.133333,22.034666 1.622667,33.025333c0.053333,1.170667 0.569333,2.634667 1.246667,3.577333c1.234667,1.721333 2.34,3.402667 3.669333,5.085333c2.430667,3.074667 5.148,5.942667 8.128,8.493333c8.472,7.254667 18.458666,11.44 29.710666,11.44c11.250667,0 21.234666,-4.185333 29.709333,-11.44c2.977333,-2.550667 5.696,-5.418667 8.126667,-8.493333c1.329333,-1.682667 2.433333,-3.364 3.669333,-5.085333c0.677333,-0.942667 1.192,-2.406667 1.244,-3.577333c0.492,-10.990667 1.237333,-22.036 1.628,-33.025333l-44.377333,-2.370667" id="path146"/>
  <path fill="#95cdd8" fill-rule="evenodd" d="m372.119996,189.993341c0.152,-3.149333 0.321333,-6.301333 0.492,-9.454667l-30.524,-2.132l30.032,11.586667zm-85.711999,1.614667l0.064,1.453333c0.053333,1.170667 0.569333,2.634667 1.246667,3.577333c1.234667,1.721333 2.34,3.402667 3.669333,5.085333c2.430667,3.074667 5.148,5.942667 8.128,8.493333c8.472,7.254667 18.458666,11.44 29.710666,11.44c11.250667,0 21.234666,-4.185333 29.709333,-11.44c2.977333,-2.550667 5.696,-5.418667 8.126667,-8.493333c1.329333,-1.682667 2.433333,-3.364 3.669333,-5.085333c0.185333,-0.257333 0.357333,-0.554667 0.512,-0.873333c0,0 -7.194667,7.785333 -32.18,7.785333c-24.985333,0 -52.655999,-11.942667 -52.655999,-11.942667zm-0.904,-17.297333c0.228,4.296 0.469333,8.594667 0.688,12.885333l40.937333,-15.790667l-41.625333,2.905333l0,0" id="path148"/>
  <path fill="#282e6a" fill-rule="evenodd" d="m329.22133,48.473343c14.292,0 28.584,4.194667 40.528,12.581333c18.458666,12.966667 22.412,31.864 22.412,45.926666c0,14.064 0,30.149333 0,30.149333c0,0 -3.665333,4.728 -3.665333,16.752c-5.273333,0 -5.818667,-5.656 -5.818667,-11.244c0,-5.590667 0,-9.998667 0,-9.998667c-11.6,0 -12.993333,-31.062666 -10.830667,-34.78c1.758667,-3.022667 7.252,-11.021333 9.176,-13.358667c0,0 0.801333,-1.073333 0.004,-1.54c-0.797333,-0.468 -1.432,0.310667 -4.730667,3.661333c-3.294667,3.352 -7.306667,6.868 -9.229333,7.858667c-2.884,1.484 -12.361333,-0.462667 -16.973333,-0.462667l-20.872,0l-20.870666,0c-4.610667,0 -14.090667,1.946667 -16.974666,0.462667c-1.922667,-0.990667 -5.934667,-4.506667 -9.230667,-7.858667c-3.296,-3.350667 -3.932,-4.129333 -4.729333,-3.661333c-0.796,0.466667 0.002667,1.54 0.002667,1.54c1.926667,2.337333 7.418667,10.336 9.177333,13.358667c2.162667,3.717333 0.769333,34.78 -10.830667,34.78c0,0 0,4.408 0,9.998667c0,5.588 -0.542667,11.244 -5.82,11.244c0,-12.024 -3.664,-16.752 -3.664,-16.752c0,0 0,-16.085333 0,-30.149333c0,-14.062667 3.952,-32.96 22.410666,-45.926666c11.946667,-8.386667 26.237333,-12.581333 40.529333,-12.581333" id="path150"/>
  <path fill="#1e2348" fill-rule="evenodd" d="m277.415997,82.961343c0.797333,-0.468 1.433333,0.310667 4.729333,3.661333c3.296,3.352 7.308,6.868 9.230667,7.858667c2.884,1.484 12.364,-0.462667 16.974666,-0.462667l20.870666,0l20.872,0c4.612,0 14.089333,1.946667 16.973333,0.462667c1.922667,-0.990667 5.934667,-4.506667 9.229333,-7.858667c3.298667,-3.350667 3.933333,-4.129333 4.730667,-3.661333c0.797333,0.466667 -0.004,1.54 -0.004,1.54l1.081333,-1.269333l3.62,-4.249333c-3.417333,-6.470667 -8.512,-12.682667 -15.974667,-17.928c-11.944,-8.386667 -26.236,-12.581333 -40.528,-12.581333c-14.292,0 -28.582666,4.194667 -40.529333,12.581333c-7.461333,5.245333 -12.556,11.457333 -15.973333,17.928l3.62,4.249333l1.08,1.269333c0,0 -0.798667,-1.073333 -0.002667,-1.54" id="path152"/>
  <path fill="#1e2348" fill-rule="evenodd" d="m433.042662,550.245338l-171.550665,0l0,116.421332l160.673332,0l10.877333,-116.421332" id="path154"/>
  <path fill="#1e2348" fill-rule="evenodd" d="m124.490132,315.626674c0,0 1.621333,26.882666 -8.507867,51.077333c0,0 -1.821333,6.050667 2.228667,9.634667c4.051067,3.584 32.407733,13.442667 68.659733,13.442667c36.257333,0 64.610666,-9.858667 68.661333,-13.442667c4.050667,-3.584 2.228,-9.634667 2.228,-9.634667c-10.125333,-24.194666 -8.506667,-51.077333 -8.506667,-51.077333l-62.382666,-6.156l-62.380533,6.156" id="path156"/>
  <path fill="#f89b6f" fill-rule="evenodd" d="m108.268266,666.66667c5.647867,-29.649466 1.619733,-56.874533 -4.114667,-97.302666c-10.9,-21.161333 -19.2364,-59.631999 -13.464533,-87.205332c5.769733,-27.573333 6.418267,-67.389333 6.418267,-67.389333c0,0 54.335333,-11.961333 59.143333,-14.365333c4.810667,-2.404 5.248,-12.502667 5.248,-12.502667l25.372,-5.452l25.376,5.452c0,0 0.434667,10.098667 5.245333,12.502667c4.810667,2.404 59.145333,14.365333 59.145333,14.365333c0,0 0.648,39.816 6.418667,67.389333c5.770667,27.573333 -2.566667,66.043999 -13.466667,87.205332c-5.733333,40.4344 -9.762667,67.654799 -4.114667,97.302666l-157.206398,0" id="path158"/>
  <path fill="#f89b6f" fill-rule="evenodd" d="m186.870665,323.948007l0,0c13.968,0 25.396,11.426667 25.396,25.396l0,48.617333c0,13.966667 -11.428,25.396 -25.396,25.396l0,0c-13.965333,0 -25.393333,-11.429333 -25.393333,-25.396l0,-48.617333c0,-13.969333 11.428,-25.396 25.393333,-25.396" id="path160"/>
  <path fill="#f35f66" fill-rule="evenodd" d="m242.257331,301.576007c0.401333,0.058667 0.794667,0.126667 1.185333,0.210667l0.010667,0.005333l-0.002667,-0.002667c7.202667,1.56 12.634667,7.924 12.728,15.605333c0.105333,8.925333 -7.046667,16.249333 -15.972,16.356c-8.925333,0.108 -16.250667,-7.042667 -16.358667,-15.966667c-0.062667,-5.189333 2.325333,-9.834667 6.090667,-12.838667c-0.444,4.770667 0.273333,10.681333 6.358667,11.316l-0.110667,-9.321333c-0.046667,-3.773333 3.484,-5.484 6.070667,-5.364" id="path162"/>
  <path fill="#f35f66" fill-rule="evenodd" d="m131.708399,300.806674c-0.402133,0.052 -0.795333,0.116 -1.188133,0.194667l-0.011467,0.004l0.0016,-0.001333c-7.221333,1.458667 -12.7416,7.748 -12.942667,15.425333c-0.2276,8.924 6.8208,16.348 15.743733,16.578666c8.924533,0.230667 16.3472,-6.816 16.5792,-15.737333c0.136,-5.189333 -2.190667,-9.869333 -5.912,-12.921333c0.377333,4.774667 -0.42,10.674667 -6.516,11.225333l0.241333,-9.321333c0.098667,-3.770667 -3.406667,-5.530667 -5.9956,-5.446667" id="path164"/>
  <path fill="#f89b6f" fill-rule="evenodd" d="m186.875998,382.528006c-30.174666,0 -55.347866,-37.236 -55.347866,-66.631999l0,-39.053333c0,-30.441333 24.9052,-55.343999 55.338533,-55.343999l0.009333,0c30.433333,0 55.342666,24.902666 55.342666,55.343999l0,38.225333c0,32.217333 -21.96,67.459999 -55.342666,67.459999" id="path166"/>
  <path fill="#f35f66" fill-rule="evenodd" d="m137.534665,251.841341c3.197333,-6.257333 7.553333,-11.838667 12.776,-16.453333l62.903999,8.562667c0,0 22.652,15.696 28.772,27.88c0.149333,1.650667 0.232,3.322667 0.232,5.012l0,4.18c-1.294667,1.665333 -3.629333,2.989333 -7.312,3.830667c-28.097333,6.402667 -47.517333,-15.7 -47.517333,-15.7c0,0 18.386666,0.618667 -6.402667,8.468c-24.788,7.850667 -41.522666,-14.665333 -41.522666,-14.665333l-1.929333,-11.114667" id="path168"/>
  <path fill="#f35f66" fill-rule="evenodd" d="m226.889331,326.374673c-5.042667,0.094667 -9.054667,4.258667 -8.962667,9.3c0.094667,5.04 4.258667,9.054667 9.298667,8.962667c5.041333,-0.096 9.054667,-4.26 8.961333,-9.302667c-0.092,-5.038667 -4.256,-9.052 -9.297333,-8.96" id="path170"/>
  <path fill="#f35f66" fill-rule="evenodd" d="m146.515999,327.82934c-5.041333,0.092 -9.053333,4.257333 -8.96,9.3c0.096,5.04 4.256,9.052 9.3,8.96c5.041333,-0.093333 9.053333,-4.257333 8.961333,-9.298667c-0.094667,-5.042667 -4.26,-9.053333 -9.301333,-8.961333" id="path172"/>
  <path fill="#1e2348" fill-rule="evenodd" d="m170.423998,287.988007c1.164,0.529333 1.68,1.904 1.152,3.069333c-0.526667,1.164 -1.902667,1.681333 -3.068,1.154667c-0.02,-0.009333 -7.012,-3.317333 -13.686667,0.878667c-1.086667,0.684 -2.525333,0.356 -3.209333,-0.730667c-0.682667,-1.086667 -0.356,-2.526667 0.730667,-3.208c8.816,-5.542667 18.054666,-1.174667 18.081333,-1.164" id="path174"/>
  <path fill="#1e2348" fill-rule="evenodd" d="m225.151998,289.02134c1.118667,0.621333 1.521333,2.036 0.901333,3.152c-0.621333,1.12 -2.036,1.522667 -3.154667,0.901333c-0.016,-0.009333 -6.718667,-3.874667 -13.710667,-0.234667c-1.138667,0.592 -2.548,0.146667 -3.14,-0.990667c-0.592,-1.138667 -0.149333,-2.546667 0.993333,-3.138667c9.233333,-4.809333 18.086666,0.297333 18.110666,0.310667" id="path176"/>
  <path fill="#ffffff" fill-rule="evenodd" d="m173.166665,342.760007c-0.082667,9.046667 7.185333,16.449333 16.234667,16.532c9.048,0.08 16.448,-7.186667 16.530666,-16.234667l-0.028,-0.001333c0.014667,-1.557333 -1.245333,-2.84 -2.802667,-2.854667l-27.054666,-0.245333c-1.553333,-0.012 -2.837333,1.246667 -2.854667,2.804l-0.025333,0" id="path178"/>
  <path fill="#ffffff" fill-rule="evenodd" d="m179.153332,355.570673c2.789333,2.293333 6.354667,3.685333 10.249333,3.72c3.178667,0.029333 6.152,-0.850667 8.68,-2.394667c-1.228,-3.373333 -4.884,-5.924 -9.312,-6.126667c-4.228,-0.197333 -7.950667,1.797333 -9.617333,4.801333" id="path180"/>
  <path fill="#ffffff" fill-rule="evenodd" d="m202.185331,340.194673l-25.424,-0.232c-0.429333,2.808 0.845333,5.66 2.732,6.294667c2.296,0.774667 20.698666,0.462667 22.013333,-0.974667c0.633333,-0.696 0.741333,-2.948 0.678667,-5.088" id="path182"/>
  <path fill="#fbc4bb" fill-rule="evenodd" d="m190.638665,317.08534c1.188,3.376 3.258667,9.473333 3.081333,10.429333c-0.249333,1.334667 -7.294667,1.685333 -9.145333,-0.353333c-1.232,-1.356 0.294667,-6.416 1.632,-9.782667c1.822667,-4.589333 2.836,-4.832 4.432,-0.293333" id="path184"/>
  <path fill="#ffffff" fill-rule="evenodd" d="m246.943998,408.041339l-10.901333,147.189332l22.421333,0.5824c0,0 4.376,71.175999 12.534667,110.853599l-167.553332,0c8.1588,-39.6776 12.5344,-110.853599 12.5344,-110.853599l22.420266,-0.5824l-10.9052,-147.189332c31.955866,52.313333 87.494532,52.313333 119.449199,0" id="path186"/>
  <path fill="#c6c9c9" fill-rule="evenodd" d="m165.025332,666.66667l-61.579999,0c8.1588,-39.6776 12.5344,-110.853599 12.5344,-110.853599l22.420266,-0.5824l-8.776,-118.471999c7.597333,-1.286667 14.412,-2.314667 20.130666,-3.116c5.862667,4.554667 12.024,7.966667 18.337333,10.237333c-1.266667,210.830411 -3.104,221.857498 -3.104,221.857498l0.037333,0.929167" id="path188"/>
  <path fill="#c6c9c9" fill-rule="evenodd" d="m244.818664,436.758672l-8.776,118.471999l22.421333,0.5824c0,0 4.376,71.175999 12.534667,110.853599l-61.582666,0l0.036,-0.929167c0,0 -1.833333,-11.027087 -3.102667,-221.857498c6.314667,-2.270667 12.478667,-5.682667 18.337333,-10.237333c5.718667,0.801333 12.533333,1.829333 20.132,3.116" id="path190"/>
  <path fill="#dd244c" fill-rule="evenodd" d="m213.447998,425.976006c0,0 -2.788,-3.408 -3.718667,-5.888c-0.929333,-2.477333 -0.617333,-4.182667 2.170667,-6.970667c2.789333,-2.789333 13.322667,-12.550667 15.337333,-14.409333c2.013333,-1.858667 4.105333,-1.006667 5.188,0.078667c1.086667,1.082667 5.161333,6.012 5.161333,6.012c0,0 -7.016,13.2 -24.138666,21.177333" id="path192"/>
  <path fill="#f03562" fill-rule="evenodd" d="m213.447998,425.976006c0,0 -1.161333,3.797333 -1.161333,9.22c0,5.422667 1.86,80.875999 3.096,118.678532c1.241333,37.805733 1.864,99.470772 1.864,104.117652c0,4.64792 2.169333,6.2 5.885333,5.57864c3.718667,-0.618747 49.272,-10.536427 64.762666,-14.254693c0,0 5.888,-3.408267 5.888,-9.6068c0,-6.197333 -7.126667,-117.127999 -7.126667,-117.127999c0,0 -14.130667,-74.259999 9.357333,-95.697332c0,0 -2.230667,-3.926667 -6.877333,-7.489333c-4.648,-3.565333 -51.549333,-14.596 -51.549333,-14.596l-24.138666,21.177333" id="path194"/>
  <path fill="#dd244c" fill-rule="evenodd" d="m160.994665,425.976006c0,0 2.788,-3.408 3.718667,-5.888c0.928,-2.477333 0.62,-4.182667 -2.168,-6.970667c-2.790667,-2.789333 -13.326667,-12.550667 -15.341333,-14.409333c-2.013333,-1.858667 -4.105333,-1.006667 -5.189333,0.078667c-1.085333,1.082667 -5.161333,6.012 -5.161333,6.012c0,0 7.02,13.2 24.141333,21.177333" id="path196"/>
  <path fill="#f03562" fill-rule="evenodd" d="m160.994665,425.976006c0,0 1.161333,3.797333 1.161333,9.22c0,5.422667 -1.86,80.875999 -3.098667,118.678532c-1.241333,37.805733 -1.858667,99.470772 -1.858667,104.117652c0,4.64792 -2.170667,6.2 -5.888,5.57864c-3.718667,-0.618747 -49.271066,-10.536427 -64.764799,-14.254693c0,0 -5.887067,-3.408267 -5.887067,-9.6068c0,-6.197333 7.1276,-117.127999 7.1276,-117.127999c0,0 14.131867,-74.259999 -9.359867,-95.697332c0,0 2.232267,-3.926667 6.880267,-7.489333c4.648933,-3.565333 51.546533,-14.596 51.546533,-14.596l24.141333,21.177333" id="path198"/>
  <path fill="#f35f66" fill-rule="evenodd" d="m212.266665,387.036006l0,-12.129333c-7.294667,4.729333 -15.714667,7.549333 -25.038666,7.62c-0.118667,0.001333 -0.233333,0.001333 -0.353333,0.001333c-0.117333,0 -0.236,0 -0.356,-0.001333c-8.976,-0.088 -17.5,-3.462667 -25.041333,-8.934667l0,14.670667c-0.134667,1.822667 -0.96,10.008 -5.226667,12.141333c-0.74,0.370667 -2.656,0.966667 -5.366667,1.714667c0.518667,0.48 3.288,3.370667 3.857333,3.9l57.525333,-18.982666" id="path200"/>
  <path fill="#1e2348" fill-rule="evenodd" d="m131.528132,313.978674c0,0 12.5412,-4.957333 7.5092,-19.625333c0,0 14.048,-9.296 10.74,-34.5c1.629333,6.12 20.646666,28.134666 42.145333,21.484c13.368,-4.134667 6.404,-14.46 6.404,-14.46c0,0 10.844,13.428 30.470666,11.672c0,0 -5.028,16.104 8.673333,19.729333c0,0 -1.561333,14.873333 4.748,16.113333c0,0 1.304,-13.154667 7.005333,-10.088c0,0 8.390667,-40.524 4.673333,-62.421333c-3.718667,-21.897333 -61.147999,-39.662666 -77.674666,-39.662666c-16.526666,0 -43.7956,19.418666 -45.4472,33.878666c0,0 -18.1796,4.132 -19.419733,14.048c-1.239067,9.916 10.615067,55.609333 10.615067,55.609333c0,0 9.557333,-3.138667 9.557333,8.222667" id="path202"/>
  <path fill="#1e2348" fill-rule="evenodd" d="m215.869331,305.998674c-3.944,0 -7.142667,3.196 -7.142667,7.14c0,3.942667 3.198667,7.14 7.142667,7.14c3.944,0 7.14,-3.197333 7.14,-7.14c0,-0.444 -0.04,-0.874667 -0.117333,-1.296l0.210667,-0.030667c0.824,-0.133333 1.698667,-0.429333 2.558667,-0.982667c0.382667,-0.244 0.496,-0.754667 0.252,-1.14c-0.245333,-0.384 -0.758667,-0.494667 -1.141333,-0.250667c-0.8,0.516 -1.625333,0.738667 -2.376,0.8l-0.017333,-0.041333c0.797333,-0.296 1.637333,-0.804 2.333333,-1.662667c0.284,-0.354667 0.228,-0.874667 -0.126667,-1.16c-0.353333,-0.286667 -0.873333,-0.229333 -1.16,0.124c-0.569333,0.706667 -1.273333,1.076 -1.910667,1.266667l-0.073333,-0.093333c0.538667,-0.297333 1.092,-0.765333 1.466667,-1.5c0.205333,-0.405333 0.046667,-0.901333 -0.358667,-1.112c-0.405333,-0.206667 -0.904,-0.045333 -1.113333,0.358667c-0.317333,0.628 -0.865333,0.908 -1.252,1.029333c-1.197333,-0.909333 -2.693333,-1.449333 -4.314667,-1.449333zm-57.994666,0c-1.636,0 -3.144,0.549333 -4.348,1.474667c-0.388,-0.109333 -0.993333,-0.382667 -1.333333,-1.054667c-0.209333,-0.404 -0.705333,-0.565333 -1.109333,-0.358667c-0.405333,0.210667 -0.568,0.706667 -0.36,1.112c0.390667,0.769333 0.982667,1.246667 1.545333,1.542667l-0.06,0.077333c-0.661333,-0.182667 -1.405333,-0.552 -2.005333,-1.293333c-0.286667,-0.353333 -0.806667,-0.410667 -1.16,-0.124c-0.353333,0.285333 -0.410667,0.805333 -0.125333,1.16c0.724,0.893333 1.601333,1.408 2.428,1.697333l-0.010667,0.013333c-0.777333,-0.049333 -1.638667,-0.268 -2.477333,-0.806667c-0.384,-0.244 -0.892,-0.133333 -1.14,0.250667c-0.245333,0.385333 -0.132,0.896 0.249333,1.14c0.86,0.553333 1.737333,0.849333 2.56,0.982667l0.32,0.046667c-0.074667,0.414667 -0.114667,0.842667 -0.114667,1.28c0,3.942667 3.197333,7.14 7.141333,7.14c3.945333,0 7.14,-3.197333 7.14,-7.14c0,-3.944 -3.194667,-7.14 -7.14,-7.14l0,0" id="path204"/>
  <path fill="#95cdd8" fill-rule="evenodd" d="m228.598664,325.404007c-0.14,0.476 -0.644,0.748 -1.118667,0.606667c-0.476,-0.141333 -0.750667,-0.642667 -0.606667,-1.118667c0.016,-0.053333 13.098667,-22.057333 20.029333,-20.961333l-1.956,1.521333c-6.897333,6.212 -16.334667,19.902666 -16.348,19.952" id="path206"/>
  <path fill="#95cdd8" fill-rule="evenodd" d="m145.487999,325.09734c0.141333,0.476 0.645333,0.746667 1.12,0.606667c0.476,-0.142667 0.749333,-0.645333 0.606667,-1.121333c-0.016,-0.052 -13.242667,-19.986666 -20.172,-18.889333l1.0672,0.453333l0.847467,0.574667c6.897333,6.210667 16.516,18.325333 16.530666,18.376" id="path208"/>
  <path fill="#95cdd8" fill-rule="evenodd" d="m147.581332,358.898673c0.493333,0.053333 0.942667,-0.302667 0.996,-0.797333c0.053333,-0.493333 -0.304,-0.94 -0.797333,-0.994667l-0.314667,-0.032c-10.110667,-1.266667 -18.925733,-16.269333 -19.6232,-25.198666c-0.634267,-0.356 -1.2504,-0.738667 -1.8724,-1.164c0.472933,10.061333 9.9316,26.732 21.2756,28.149333l0.336,0.037333" id="path210"/>
  <path fill="#95cdd8" fill-rule="evenodd" d="m225.990664,358.898673c-0.494667,0.053333 -0.938667,-0.302667 -0.994667,-0.797333c-0.052,-0.493333 0.302667,-0.94 0.797333,-0.994667l0.317333,-0.032c10.106667,-1.266667 20.772,-16.269333 21.468,-25.198666c0.637333,-0.356 1.252,-0.738667 1.873333,-1.164c-0.472,10.061333 -11.78,26.732 -23.124,28.149333l-0.337333,0.037333" id="path212"/>
  <path fill="#ffffff" fill-rule="evenodd" d="m186.866665,321.124007l41.053333,2.190667c0,0 1.641333,0.473333 1.592,1.981333c-0.049333,1.508 -1.489333,30.593333 -1.489333,30.593333c0,0 -0.069333,2.617333 -1.694667,4.88c-1.626667,2.264 -14.546667,23.554666 -39.461333,23.554666c-24.912,0 -37.833333,-21.290666 -39.458666,-23.554666c-1.625333,-2.262667 -1.694667,-4.88 -1.694667,-4.88c0,0 -1.438667,-29.085333 -1.489333,-30.593333c-0.050667,-1.508 1.592,-1.981333 1.592,-1.981333l41.050666,-2.190667" id="path214"/>
  <path fill="#c3e5e8" fill-rule="evenodd" d="m186.870665,324.282673l-39.449333,2.106667c0.345333,9.769333 1.006667,19.586666 1.444,29.36c0.048,1.041333 0.506667,2.341333 1.108,3.178667c1.098667,1.530667 2.08,3.026667 3.261333,4.521333c2.161333,2.733333 4.578667,5.281333 7.225333,7.549333c7.532,6.449333 16.409333,10.170667 26.410666,10.170667c10.002667,0 18.88,-3.721333 26.412,-10.170667c2.646667,-2.268 5.064,-4.816 7.224,-7.549333c1.182667,-1.494667 2.164,-2.990667 3.262667,-4.521333c0.601333,-0.837333 1.06,-2.137333 1.108,-3.178667c0.434667,-9.773333 1.097333,-19.590666 1.444,-29.36l-39.450666,-2.106667" id="path216"/>
  <path fill="#95cdd8" fill-rule="evenodd" d="m225.002664,353.022673c0.136,-2.801333 0.284,-5.604 0.438667,-8.405333l-27.134666,-1.896l26.696,10.301333zm-76.194666,1.434667l0.057333,1.292c0.048,1.041333 0.506667,2.341333 1.108,3.178667c1.098667,1.530667 2.08,3.026667 3.261333,4.521333c2.161333,2.733333 4.578667,5.281333 7.225333,7.549333c7.532,6.449333 16.409333,10.170667 26.410666,10.170667c10.002667,0 18.88,-3.721333 26.412,-10.170667c2.646667,-2.268 5.064,-4.816 7.224,-7.549333c1.182667,-1.494667 2.164,-2.990667 3.262667,-4.521333c0.166667,-0.229333 0.32,-0.493333 0.456,-0.776c0,0 -6.394667,6.924 -28.606666,6.924c-22.210666,0 -46.810666,-10.618667 -46.810666,-10.618667zm-0.802667,-15.377333c0.201333,3.821333 0.414667,7.64 0.609333,11.456l36.392,-14.04l-37.001333,2.584l0,0" id="path218"/>
  <path fill="#dd244c" fill-rule="evenodd" d="m85.306799,419.394672c0,0 -12.927067,4.318667 -19.089066,16.641333c-6.163067,12.325333 -49.502133,112.353066 -51.556266,123.035865c-1.978653,10.290667 -5.481773,39.7084 13.375467,107.594799l52.577066,0c-2.0208,-8.69844 -13.6104,-81.342666 -15.426,-83.359866l22.835466,-62.060133c0,0 26.766133,-74.833333 -2.716667,-101.851999" id="path220"/>
  <path fill="#dd244c" fill-rule="evenodd" d="m289.135997,419.394672c0,0 12.926667,4.318667 19.089333,16.641333c6.161333,12.325333 49.5,112.353066 51.553333,123.035865c1.98,10.290667 5.481333,39.7084 -13.373333,107.594799l-52.578666,0c2.022667,-8.69844 13.613333,-81.342666 15.425333,-83.359866l-22.834666,-62.060133c0,0 -26.766666,-74.833333 2.718667,-101.851999" id="path222"/>
  <path fill="#1e2348" fill-rule="evenodd" d="m748.599992,283.536007l-3.125333,-5.528c0,0 -5.913333,-32.881333 -5.502667,-44.382666c0.412,-11.502667 10.682667,-25.881333 39.850666,-39.028c29.166666,-13.146667 52.170666,13.969333 58.742666,19.72c0,0 31.221333,-1.233333 39.026666,7.393333c7.805333,8.626667 1.810667,59.562666 1.810667,59.562666l-130.802665,2.262667zm5.956,33.377333l-9.704,4.102667c0,0 1.342667,42.404 -8.517333,71.601333c-9.86,29.196 -2.018667,53.873333 13.894667,47.965333c0,0 0.929333,17.785333 14.116,21.897333c13.190667,4.109333 29.582666,7.298667 29.582666,7.298667l44.373333,2.782667c0,0 42.132,13.204 45.269333,-42.754666c0,0 14.345333,-0.693333 14.568,-20.156c0.222667,-19.464 -19.496,-51.093333 -19.496,-91.410666c0,-40.32 -124.086665,-1.326667 -124.086665,-1.326667l0,0" id="path224"/>
  <path fill="#f89b6f" fill-rule="evenodd" d="m733.826659,666.342711c5.646667,-29.649508 1.618667,-56.873374 -4.114667,-97.301507c-10.901333,-21.160933 -19.237333,-59.633199 -13.466667,-87.206532c5.770667,-27.573333 4.234667,-58.725333 4.234667,-58.725333c0,0 56.519999,-20.625333 61.329333,-23.029333c4.810667,-2.405333 5.246667,-12.502667 5.246667,-12.502667l25.373333,-5.450667l25.373333,5.450667c0,0 0.437333,10.097333 5.248,12.502667c4.808,2.404 59.143999,14.366667 59.143999,14.366667c0,0 0.648,39.814666 6.417333,67.387999c5.770667,27.573333 -2.565333,66.045599 -13.464,87.206532c-5.734667,40.432266 -9.762667,67.653599 -4.117333,97.301507l-157.203998,0" id="path226"/>
  <path fill="#f89b6f" fill-rule="evenodd" d="m812.429325,323.624007l0,0c13.966667,0 25.396,11.428 25.396,25.396l0,48.617333c0,13.968 -11.429333,25.394666 -25.396,25.394666l0,0c-13.968,0 -25.397333,-11.426667 -25.397333,-25.394666l0,-48.617333c0,-13.968 11.429333,-25.396 25.397333,-25.396" id="path228"/>
  <path fill="#f35f66" fill-rule="evenodd" d="m867.814658,301.25334c0.401333,0.057333 0.796,0.126667 1.185333,0.210667l0.010667,0.004l-0.001333,-0.001333c7.202667,1.558667 12.633333,7.924 12.725333,15.604c0.106667,8.926667 -7.044,16.249333 -15.969333,16.357333c-8.926667,0.108 -16.252,-7.042667 -16.36,-15.968c-0.062667,-5.189333 2.326667,-9.834667 6.092,-12.836c-0.446667,4.768 0.272,10.678667 6.356,11.314667l-0.108,-9.322667c-0.046667,-3.774667 3.482667,-5.484 6.069333,-5.362667" id="path230"/>
  <path fill="#f35f66" fill-rule="evenodd" d="m757.266659,300.48534c-0.402667,0.050667 -0.796,0.113333 -1.186667,0.193333l-0.013333,0.002667l0.001333,-0.001333c-7.221333,1.46 -12.741333,7.748 -12.942667,15.425333c-0.228,8.925333 6.821333,16.348 15.742667,16.578666c8.925333,0.232 16.349333,-6.816 16.58,-15.738667c0.136,-5.186667 -2.188,-9.865333 -5.910667,-12.92c0.377333,4.774667 -0.421333,10.676 -6.517333,11.225333l0.241333,-9.318667c0.098667,-3.773333 -3.406667,-5.533333 -5.994667,-5.446667" id="path232"/>
  <path fill="#f89b6f" fill-rule="evenodd" d="m812.434658,382.202673c-30.174666,0 -55.349333,-37.233333 -55.349333,-66.630666l0,-39.053333c0,-30.44 24.906666,-55.343999 55.339999,-55.343999l0.009333,0c30.430666,0 55.341333,24.904 55.341333,55.343999l0,38.225333c0,32.22 -21.958666,67.458666 -55.341333,67.458666" id="path234"/>
  <path fill="#f35f66" fill-rule="evenodd" d="m845.131991,256.626674c0,0 -9.357333,-4.192 -20.130666,2.054667c-10.768,6.248 -26.906666,31.630666 -56.893333,28.345333c-29.989333,-3.286667 39.230666,-31.838666 39.230666,-31.838666c0,0 34.918666,-17.46 36.768,-16.430667c1.846667,1.026667 1.025333,17.869333 1.025333,17.869333" id="path236"/>
  <path fill="#f35f66" fill-rule="evenodd" d="m852.445325,326.05334c-5.041333,0.092 -9.053333,4.257333 -8.96,9.297333c0.093333,5.042667 4.257333,9.054667 9.298667,8.961333c5.041333,-0.094667 9.052,-4.256 8.961333,-9.298667c-0.093333,-5.041333 -4.257333,-9.054667 -9.3,-8.96" id="path238"/>
  <path fill="#f35f66" fill-rule="evenodd" d="m772.074659,327.506673c-5.042667,0.093333 -9.054667,4.256 -8.96,9.298667c0.093333,5.04 4.256,9.053333 9.297333,8.96c5.041333,-0.093333 9.054667,-4.257333 8.964,-9.298667c-0.096,-5.041333 -4.261333,-9.053333 -9.301333,-8.96" id="path240"/>
  <path fill="#1e2348" fill-rule="evenodd" d="m795.981325,287.66534c1.164,0.528 1.682667,1.902667 1.152,3.069333c-0.526667,1.164 -1.904,1.682667 -3.068,1.153333c-0.018667,-0.009333 -7.012,-3.316 -13.685333,0.878667c-1.088,0.684 -2.526667,0.358667 -3.210667,-0.730667c-0.681333,-1.086667 -0.354667,-2.525333 0.732,-3.208c8.814667,-5.544 18.053333,-1.174667 18.08,-1.162667" id="path242"/>
  <path fill="#1e2348" fill-rule="evenodd" d="m850.709325,288.698674c1.118667,0.62 1.521333,2.034667 0.901333,3.152c-0.621333,1.118667 -2.036,1.521333 -3.154667,0.9c-0.017333,-0.009333 -6.718667,-3.874667 -13.710667,-0.234667c-1.137333,0.592 -2.548,0.149333 -3.138667,-0.990667c-0.593333,-1.138667 -0.148,-2.548 0.990667,-3.137333c9.236,-4.808 18.088,0.297333 18.112,0.310667" id="path244"/>
  <path fill="#ffffff" fill-rule="evenodd" d="m798.722659,342.436007c-0.081333,9.049333 7.186667,16.449333 16.234667,16.532c9.048,0.082667 16.449333,-7.186667 16.530666,-16.234667l-0.028,-0.001333c0.016,-1.554667 -1.242667,-2.838667 -2.8,-2.853333l-27.053333,-0.245333c-1.556,-0.013333 -2.841333,1.248 -2.857333,2.802667l-0.026667,0" id="path246"/>
  <path fill="#ffffff" fill-rule="evenodd" d="m804.711992,355.246673c2.788,2.293333 6.353333,3.685333 10.248,3.721333c3.176,0.028 6.152,-0.849333 8.678667,-2.394667c-1.226667,-3.374667 -4.881333,-5.924 -9.309333,-6.128c-4.229333,-0.197333 -7.950667,1.797333 -9.617333,4.801333" id="path248"/>
  <path fill="#ffffff" fill-rule="evenodd" d="m827.742658,339.870673l-25.425333,-0.232c-0.428,2.809333 0.848,5.661333 2.733333,6.296c2.294667,0.773333 20.697333,0.462667 22.012,-0.976c0.636,-0.694667 0.742667,-2.946667 0.68,-5.088" id="path250"/>
  <path fill="#fbc4bb" fill-rule="evenodd" d="m816.195992,316.76134c1.189333,3.376 3.258667,9.474667 3.081333,10.429333c-0.249333,1.334667 -7.294667,1.685333 -9.144,-0.352c-1.234667,-1.357333 0.294667,-6.417333 1.630667,-9.782667c1.822667,-4.590667 2.834667,-4.833333 4.432,-0.294667" id="path252"/>
  <path fill="#ffffff" fill-rule="evenodd" d="m872.501325,407.718673l-10.901333,147.188132l22.421333,0.583867c0,0 4.376,71.174399 12.534667,110.85204l-167.553332,0c8.158667,-39.677641 12.536,-110.85204 12.536,-110.85204l22.418666,-0.583867l-10.904,-147.188132c31.954666,52.310666 87.494666,52.310666 119.447999,0" id="path254"/>
  <path fill="#ffffff" fill-rule="evenodd" d="m839.005325,425.653339c0,0 -2.786667,-3.408 -3.718667,-5.888c-0.928,-2.478667 -0.618667,-4.184 2.168,-6.970667c2.789333,-2.790667 13.322667,-12.550667 15.338667,-14.410667c2.014667,-1.858667 4.106667,-1.006667 5.190667,0.078667c1.085333,1.082667 5.16,6.010667 5.16,6.010667c0,0 -7.016,13.201333 -24.138666,21.18" id="path256"/>
  <path fill="#273d7d" fill-rule="evenodd" d="m839.005325,425.653339c-0.328,1.122667 -23.206666,108.930532 -27.086666,133.917465c-0.357333,2.314667 -7.948,44.179733 -7.948,44.919866c0,1.0708 12.504,33.483866 23.32,62.175999l96.063999,0c-6.053333,-33.164 -16.516,-88.337466 -16.578666,-90.162532c-0.141333,-3.973467 5.438667,-54.246799 5.438667,-54.246799c0,0 -14.130667,-74.258666 9.356,-95.694666c0,0 -2.229333,-3.929333 -6.877333,-7.492c-4.646667,-3.564 -51.549333,-14.597333 -51.549333,-14.597333l-24.138666,21.18" id="path258"/>
  <path fill="#232856" fill-rule="evenodd" d="m815.911992,537.616138c-1.825333,9.443733 -3.253333,17.201066 -3.993333,21.954666c-0.357333,2.314667 -7.948,44.179733 -7.948,44.919866c0,1.0708 12.504,33.483866 23.32,62.175999l29.392,0l-35.72,-99.799999l19.465333,-37.930666l-12.481333,-1.093333c0,0 -5.144,4.069333 -12.034667,9.773467" id="path260"/>
  <path fill="#2f60b2" fill-rule="evenodd" d="m829.594658,470.177339c-8.012,38.462666 -18.232,88.703866 -18.232,94.055999l50.083999,-60.826666l-11.501333,-43.956c0,0 -9.216,4.742667 -20.350666,10.726667" id="path262"/>
  <path fill="#f35f66" fill-rule="evenodd" d="m787.119992,399.741339l37.82,-14.928l12.885333,-5.088l0,-5.142667c-7.294667,4.730667 -15.717333,7.550667 -25.04,7.62c-0.118667,0 -0.233333,0 -0.353333,0c-0.116,0 -0.236,0 -0.356,-0.001333c-8.974667,-0.086667 -17.501333,-3.461333 -25.044,-8.933333l0,14.672c-0.132,1.824 -0.957333,10.009333 -5.222667,12.14c-0.741333,0.370667 -2.656,0.966667 -5.368,1.713333c0.516,0.481333 1.062667,0.992 1.633333,1.517333l9.045333,-3.569333" id="path264"/>
  <path fill="#1e2348" fill-rule="evenodd" d="m841.426658,302.49734c-3.942667,0 -7.142667,3.197333 -7.142667,7.141333c0,3.942667 3.2,7.14 7.142667,7.14c3.942667,0 7.138667,-3.197333 7.138667,-7.14c0,-0.444 -0.04,-0.876 -0.116,-1.296l0.210667,-0.032c0.824,-0.130667 1.7,-0.426667 2.56,-0.978667c0.382667,-0.245333 0.496,-0.756 0.250667,-1.142667c-0.245333,-0.384 -0.757333,-0.494667 -1.141333,-0.249333c-0.8,0.514667 -1.624,0.737333 -2.378667,0.798667l-0.014667,-0.041333c0.798667,-0.294667 1.636,-0.802667 2.334667,-1.662667c0.284,-0.356 0.228,-0.874667 -0.126667,-1.161333c-0.353333,-0.285333 -0.873333,-0.228 -1.16,0.125333c-0.569333,0.708 -1.274667,1.076 -1.912,1.266667l-0.073333,-0.092c0.536,-0.298667 1.093333,-0.766667 1.466667,-1.5c0.205333,-0.406667 0.046667,-0.902667 -0.358667,-1.113333c-0.406667,-0.205333 -0.902667,-0.045333 -1.112,0.36c-0.318667,0.626667 -0.866667,0.906667 -1.252,1.030667c-1.2,-0.912 -2.694667,-1.453333 -4.316,-1.453333zm-57.994666,0c-1.636,0 -3.144,0.552 -4.348,1.477333c-0.386667,-0.110667 -0.992,-0.384 -1.333333,-1.054667c-0.208,-0.405333 -0.704,-0.565333 -1.109333,-0.36c-0.406667,0.210667 -0.568,0.706667 -0.36,1.113333c0.390667,0.768 0.982667,1.245333 1.544,1.542667l-0.058667,0.077333c-0.661333,-0.182667 -1.405333,-0.552 -2.004,-1.294667c-0.286667,-0.353333 -0.808,-0.410667 -1.161333,-0.125333c-0.353333,0.286667 -0.410667,0.805333 -0.124,1.161333c0.722667,0.893333 1.598667,1.408 2.426667,1.697333l-0.010667,0.013333c-0.778667,-0.050667 -1.638667,-0.268 -2.477333,-0.805333c-0.384,-0.245333 -0.894667,-0.134667 -1.138667,0.249333c-0.245333,0.386667 -0.133333,0.897333 0.250667,1.142667c0.858667,0.552 1.733333,0.848 2.558667,0.978667l0.318667,0.048c-0.073333,0.414667 -0.114667,0.842667 -0.114667,1.28c0,3.942667 3.198667,7.14 7.141333,7.14c3.945333,0 7.141333,-3.197333 7.141333,-7.14c0,-3.944 -3.196,-7.141333 -7.141333,-7.141333l0,0" id="path266"/>
  <path fill="#95cdd8" fill-rule="evenodd" d="m854.157325,325.08134c-0.142667,0.477333 -0.645333,0.748 -1.121333,0.605333c-0.476,-0.14 -0.749333,-0.642667 -0.604,-1.118667c0.013333,-0.053333 13.097333,-22.054666 20.028,-20.96l-1.956,1.521333c-6.898667,6.210667 -16.336,19.901333 -16.346667,19.952" id="path268"/>
  <path fill="#95cdd8" fill-rule="evenodd" d="m771.045326,324.77334c0.142667,0.476 0.644,0.748 1.12,0.606667c0.478667,-0.142667 0.746667,-0.644 0.606667,-1.12c-0.016,-0.053333 -13.242667,-19.985333 -20.172,-18.890666l1.066667,0.454667l0.848,0.572c6.897333,6.212 16.516,18.326666 16.530666,18.377333" id="path270"/>
  <path fill="#95cdd8" fill-rule="evenodd" d="m773.138659,358.574673c0.493333,0.054667 0.941333,-0.301333 0.996,-0.796c0.052,-0.494667 -0.301333,-0.94 -0.797333,-0.994667l-0.316,-0.033333c-10.109333,-1.266667 -18.925333,-16.270667 -19.621333,-25.198666c-0.634667,-0.356 -1.250667,-0.737333 -1.872,-1.164c0.472,10.061333 9.930667,26.734666 21.274666,28.148l0.336,0.038667" id="path272"/>
  <path fill="#95cdd8" fill-rule="evenodd" d="m851.549325,358.574673c-0.494667,0.054667 -0.942667,-0.301333 -0.994667,-0.796c-0.054667,-0.494667 0.301333,-0.94 0.796,-0.994667l0.316,-0.033333c10.108,-1.266667 20.773333,-16.270667 21.470666,-25.198666c0.637333,-0.356 1.252,-0.737333 1.870667,-1.164c-0.470667,10.061333 -11.778667,26.734666 -23.122666,28.148l-0.336,0.038667" id="path274"/>
  <path fill="#ffffff" fill-rule="evenodd" d="m812.425325,320.800007l41.053333,2.193333c0,0 1.64,0.470667 1.590667,1.978667c-0.049333,1.509333 -1.488,30.593333 -1.488,30.593333c0,0 -0.070667,2.618667 -1.694667,4.881333c-1.626667,2.262667 -14.548,23.552 -39.461333,23.552c-24.912,0 -37.834666,-21.289333 -39.46,-23.552c-1.625333,-2.262667 -1.694667,-4.881333 -1.694667,-4.881333c0,0 -1.44,-29.084 -1.489333,-30.593333c-0.049333,-1.508 1.590667,-1.978667 1.590667,-1.978667l41.053333,-2.193333" id="path276"/>
  <path fill="#c3e5e8" fill-rule="evenodd" d="m812.429325,323.958673l-39.450666,2.106667c0.346667,9.769333 1.009333,19.589333 1.445333,29.358666c0.046667,1.042667 0.502667,2.342667 1.106667,3.181333c1.097333,1.529333 2.08,3.025333 3.261333,4.52c2.16,2.736 4.58,5.281333 7.225333,7.550667c7.533333,6.449333 16.409333,10.169333 26.412,10.169333c10.001333,0 18.877333,-3.72 26.410666,-10.169333c2.646667,-2.269333 5.064,-4.814667 7.225333,-7.550667c1.182667,-1.494667 2.162667,-2.990667 3.261333,-4.52c0.602667,-0.838667 1.06,-2.138667 1.109333,-3.181333c0.433333,-9.769333 1.097333,-19.589333 1.444,-29.358666l-39.450666,-2.106667" id="path278"/>
  <path fill="#95cdd8" fill-rule="evenodd" d="m850.559991,352.69734c0.136,-2.8 0.284,-5.602667 0.438667,-8.404l-27.133333,-1.896l26.694666,10.3zm-76.195999,1.436l0.06,1.290667c0.046667,1.042667 0.502667,2.342667 1.106667,3.181333c1.097333,1.529333 2.08,3.025333 3.261333,4.52c2.16,2.736 4.58,5.281333 7.225333,7.550667c7.533333,6.449333 16.409333,10.169333 26.412,10.169333c10.001333,0 18.877333,-3.72 26.410666,-10.169333c2.646667,-2.269333 5.064,-4.814667 7.225333,-7.550667c1.182667,-1.494667 2.162667,-2.990667 3.261333,-4.52c0.165333,-0.230667 0.318667,-0.492 0.456,-0.777333c0,0 -6.393333,6.922667 -28.608,6.922667c-22.209333,0 -46.810666,-10.617333 -46.810666,-10.617333zm-0.802667,-15.377333c0.204,3.821333 0.416,7.641333 0.612,11.456l36.390666,-14.04l-37.002666,2.584l0,0" id="path280"/>
  <path fill="#274c95" fill-rule="evenodd" d="m914.693324,419.070673c0,0 12.925333,4.32 19.089333,16.644c6.161333,12.322667 49.498666,112.351999 51.554666,123.033199c1.978667,10.292267 5.481333,39.707866 -13.376,107.59484l-52.575999,0c2.021333,-8.700001 13.613333,-81.342707 15.424,-83.359907l-24.936,-50.085466c0,0 -24.664,-86.809332 4.82,-113.826666" id="path282"/>
  <path fill="#1e2348" fill-rule="evenodd" d="m757.085326,315.572007c0,0 6.412,-4.616 6.412,-15.808c0,0 10.270667,-9.552 9.446667,-19.618666c-0.821333,-10.062667 -12.172,-23.436 -12.172,-23.436c0,0 -10.216,6.388 -13.913333,13.373333c-3.696,6.982667 1.028,35.74 1.028,35.74c0,0 6.982667,-5.136 9.198667,9.749333" id="path284"/>
  <path fill="#1e2348" fill-rule="evenodd" d="m867.775991,315.572007c0,0 -6.413333,-4.616 -6.413333,-15.808c0,0 -10.269333,-9.552 -9.449333,-19.618666c0.821333,-10.062667 12.176,-23.436 12.176,-23.436c0,0 10.213333,6.388 13.910667,13.373333c3.7,6.982667 -1.026667,35.74 -1.026667,35.74c0,0 -6.982667,-5.136 -9.197333,9.749333" id="path286"/>
  <path fill="#1e2348" fill-rule="evenodd" d="m826.907992,251.940008c-12.692,3.617333 -23.056,18.309333 -35.702666,25.737333c9.254667,-2.917333 16.804,-9.793333 23.585333,-15.977333c4.237333,-3.862667 8.190667,-7.466667 12.117333,-9.76zm14.833333,1.253333l-0.190667,-0.082667c-0.286667,0.124 -0.626667,0.114667 -0.914667,-0.053333c-8.146667,-4.762667 -15.664,2.085333 -24.490666,10.132c-8.914667,8.125333 -19.105333,17.413333 -32.846666,17.925333c-1.234667,0.34 -2.494667,0.597333 -3.784,0.746667c-23.541333,2.746667 -34.305333,-29.281333 -12.497333,-50.507999c23.388,-22.762666 74.498666,-26.108 80.349333,10.44c0,0 1.070667,7.834667 -5.625333,11.4l0,0" id="path288"/>
  <path fill="#1e2348" fill-rule="evenodd" d="m840.635992,253.057341c0,0 -1.248,26.986666 14.156,30.890666c15.405333,3.901333 20.746666,-16.022667 13.146667,-35.330666c-7.601333,-19.306666 -26.704,-27.933333 -30.605333,-26.494666c-3.904,1.437333 3.302667,30.934666 3.302667,30.934666" id="path290"/>
  <path fill="#274c95" fill-rule="evenodd" d="m839.005325,425.653339c-0.194667,0.672 -8.474667,39.589333 -15.921333,76.075999l55.619999,-58.707999l-9.014667,-36.977333c-3.984,-0.969333 -6.545333,-1.570667 -6.545333,-1.570667l-24.138666,21.18" id="path292"/>
  <path fill="#ffffff" fill-rule="evenodd" d="m785.853325,425.653339c0,0 2.788,-3.408 3.718667,-5.888c0.929333,-2.478667 0.62,-4.184 -2.169333,-6.970667c-2.789333,-2.790667 -13.324,-12.550667 -15.338667,-14.410667c-2.013333,-1.858667 -4.105333,-1.006667 -5.189333,0.078667c-1.085333,1.082667 -5.161333,6.010667 -5.161333,6.010667c0,0 7.018667,13.201333 24.14,21.18" id="path294"/>
  <path fill="#273d7d" fill-rule="evenodd" d="m785.853325,425.653339c0.358667,1.228 27.641333,129.834665 27.641333,138.579999c0,1.230667 -0.092,60.214533 -0.156,102.433332l-111.835999,0c6.053333,-33.164 16.518666,-88.337466 16.581333,-90.162532c0.138667,-3.973467 -5.438667,-54.246799 -5.438667,-54.246799c0,0 14.132,-74.258666 -9.36,-95.694666c0,0 2.233333,-3.929333 6.881333,-7.492c4.648,-3.564 51.546666,-14.597333 51.546666,-14.597333l24.14,21.18" id="path296"/>
  <path fill="#2f60b2" fill-rule="evenodd" d="m795.266659,470.177339c8.010667,38.462666 18.228,88.703866 18.228,94.055999l-50.083999,-60.826666l11.501333,-43.956c0,0 9.218667,4.742667 20.354666,10.726667" id="path298"/>
  <path fill="#274c95" fill-rule="evenodd" d="m710.166659,419.070673c0,0 -12.928,4.32 -19.090666,16.644c-6.161333,12.322667 -49.501333,112.351999 -51.554666,123.033199c-1.978667,10.292267 -5.48,39.707866 13.377333,107.59484l52.575999,0c-2.024,-8.700001 -13.610667,-81.342707 -15.426667,-83.359907l25.184,-52.273466c0,0 24.418666,-84.621332 -5.065333,-111.638666" id="path300"/>
  <path fill="#274c95" fill-rule="evenodd" d="m785.853325,425.653339c0.198667,0.672 8.476,39.589333 15.924,76.075999l-55.622666,-58.707999l9.014667,-36.977333c3.984,-0.969333 6.544,-1.570667 6.544,-1.570667l24.14,21.18" id="path302"/>
  <path fill="#ffffff" fill-rule="evenodd" d="m805.557325,576.728138c1.584,0 2.876,-1.293733 2.876,-2.876c0,-1.585467 -1.292,-2.875067 -2.876,-2.875067c-1.581333,0 -2.874667,1.2896 -2.874667,2.875067c0,1.582267 1.293333,2.876 2.874667,2.876" id="path304"/>
  <path fill="#ffffff" fill-rule="evenodd" d="m805.557325,604.455737c1.584,0 2.876,-1.291733 2.876,-2.875467c0,-1.5844 -1.292,-2.876133 -2.876,-2.876133c-1.581333,0 -2.874667,1.291733 -2.874667,2.876133c0,1.583733 1.293333,2.875467 2.874667,2.875467" id="path306"/>
  <path fill="#f35f66" fill-rule="evenodd" d="m499.483995,260.557341l0,0c17.477333,0 31.777333,24.450666 31.777333,54.335999l0,44.130666c0,29.885333 -14.3,54.335999 -31.777333,54.335999l0,0c-17.476,0 -31.774666,-24.450666 -31.774666,-54.335999l0,-44.130666c0,-29.885333 14.298667,-54.335999 31.774666,-54.335999" id="path308"/>
  <path fill="#4c90d4" fill-rule="evenodd" d="m600.006661,368.478673c0,0 18.604,5.006667 29.241333,28.024c10.637333,23.018666 36.541333,95.681332 43.021333,116.067999c6.478667,20.386666 -17.030666,107.619999 -47.004,154.095998l-39.384,0c0,0 38.046666,-116.283865 39.681333,-127.463999c1.637333,-11.177333 -36,-76.282666 -36,-76.282666c-10.38,-32.612 -9.752,-65.179999 10.444,-94.441332" id="path310"/>
  <path fill="#357abf" fill-rule="evenodd" d="m672.131993,536.912005c-4.897333,35.119733 -24,94.297332 -46.866666,129.754665l-24.442666,0c-3.933333,-5.361453 -6.72,-9.380213 -6.72,-9.380213l3.777333,-27.63592c43.846666,45.20936 69.279999,-65.053199 74.251999,-92.738532" id="path312"/>
  <path fill="#1e2348" fill-rule="evenodd" d="m507.818662,372.040006l-5.148,0.618667l-3.186667,2.178667l-3.189333,-2.178667l-5.144,-0.618667l-30.328,-23.793333l-65.869333,26.670666l-3.281333,63.201333c4.922667,62.817333 19.642666,163.531865 19.642666,168.400132c0,4.8676 -10.445333,38.9796 -16.914666,59.721303l105.083999,0l104.335999,0c-6.472,-20.741704 -16.917333,-54.853703 -16.917333,-59.721303c0,-4.868267 15.472,-105.582799 20.392,-168.400132l-3.28,-63.201333l-65.867999,-26.670666l-30.328,23.793333" id="path314"/>
  <path fill="#f03562" fill-rule="evenodd" d="m506.585328,388.609339l1.416,7.562667l14.365333,187.251998l-22.882666,48.6624l-22.881333,-48.6624l14.361333,-187.251998l1.417333,-7.562667l7.102667,4.601333l7.101333,-4.601333" id="path316"/>
  <path fill="#dd244c" fill-rule="evenodd" d="m506.583995,388.609339l1.417333,7.562667l14.365333,187.251998l-22.882666,48.6624c0,0 13.438667,-41.907733 13.972,-48.402533c0.536,-6.491733 -8.086667,-185.082531 -10.618667,-186.746531c-2.532,-1.661333 -7.568,-1.501333 -7.568,-1.501333l3.22,-2.870667l0.994667,0.645333l7.1,-4.601333" id="path318"/>
  <path fill="#1e2348" fill-rule="evenodd" d="m493.215995,373.108006l3.078667,-0.449333c0,0 0.609333,0.565333 0.698667,1.533333c0.090667,0.965333 0.154667,3.808 0.154667,3.808l-2.354667,0.733333c0,0 -4.665333,0.116 -4.621333,-0.057333c0.045333,-0.174667 3.044,-5.568 3.044,-5.568" id="path320"/>
  <path fill="#1e2348" fill-rule="evenodd" d="m505.751995,373.108006l-3.081333,-0.449333c0,0 -0.606667,0.565333 -0.694667,1.533333c-0.089333,0.965333 -0.156,3.808 -0.156,3.808l2.354667,0.733333c0,0 4.664,0.116 4.622667,-0.057333c-0.046667,-0.174667 -3.045333,-5.568 -3.045333,-5.568" id="path322"/>
  <path fill="#f03562" fill-rule="evenodd" d="m490.963995,396.172006l-6.709333,-14.713333c5.798667,-5.456 24.658666,-5.456 30.461333,0l-6.714667,14.713333c-4.725333,-1.252 -12.309333,-1.252 -17.037333,0" id="path324"/>
  <path fill="#dd244c" fill-rule="evenodd" d="m499.637328,377.366673c6.112,0.021333 12.198667,1.385333 15.078667,4.092l-6.714667,14.713333c-1.821333,-0.482667 -4.070667,-0.78 -6.418667,-0.888c1.265333,-1.02 2.933333,-2.417333 2.989333,-2.750667c0.089333,-0.542667 -0.022667,-13.202667 -0.554667,-13.414667l-4.38,-1.752zm-12.710667,9.950667l-2.672,-5.858667c2.086667,-1.962667 5.862667,-3.218667 10.112,-3.770667l-7.44,9.629333l0,0" id="path326"/>
  <path fill="#282e6a" fill-rule="evenodd" d="m531.258661,335.528007c0,0 2.741333,-0.413333 3.685333,0c0.945333,0.409333 7.94,19.538666 6.614667,23.404c-1.321333,3.864 -18.616,35.593333 -18.616,35.593333c0,0 -1.226667,1.684 -3.212,0.04c-1.985333,-1.644 -17.06,-21.906666 -17.06,-21.906666l28.588,-34.585333l0,-2.545333" id="path328"/>
  <path fill="#4c90d4" fill-rule="evenodd" d="m540.702661,346.962673l58.297333,21.090666c1.218667,0.445333 13.305333,5.284 14.741333,22.769333c0.677333,8.252 -5.090667,47.130666 -9.912,92.607999c-5.937333,55.993333 -11.256,119.861465 -11.256,123.088132c0,5.847867 10.556,39.34 17.016,60.045262l-84.959999,0l14.884,-317.293393c0,0 0.045333,-1.684 1.189333,-2.308" id="path330"/>
  <path fill="#282e6a" fill-rule="evenodd" d="m467.709329,335.406673c0,0 -2.741333,-0.413333 -3.685333,0c-0.944,0.409333 -4.158667,14.565333 -6.144,17.36c0,0 -1.796,2.3 -0.472,6.165333c1.322667,3.864 18.616,35.593333 18.616,35.593333c0,0 1.230667,1.684 3.214667,0.04c1.984,-1.644 17.056,-21.906666 17.056,-21.906666l-28.585333,-34.706666l0,-2.545333" id="path332"/>
  <path fill="#4c90d4" fill-rule="evenodd" d="m458.257329,348.740007l-58.289333,19.313333c-1.217333,0.445333 -13.305333,5.286667 -14.742667,22.769333c-0.694667,8.466667 5.946667,49.058666 10.924,95.822666c5.846667,54.942666 10.244,116.714532 10.244,119.873465c0,5.847867 -10.553333,39.34 -17.016,60.045262l84.962666,0l-16.082667,-308.490726c0,0 1.142667,-8.709333 0,-9.333333" id="path334"/>
  <path fill="#357abf" fill-rule="evenodd" d="m611.921327,374.77734c-5.305333,15.049333 -20.172,64.769333 -6,115.986665c0.098667,0.365333 -0.116,0.730667 -0.492,0.881333c-0.728,-1.373333 -1.452,-2.728 -2.166667,-4.058667c-12.833333,-50.999999 2.132,-99.761332 7.172,-113.865332c0.486667,0.332 0.984,0.685333 1.486667,1.056" id="path336"/>
  <path fill="#4c90d4" fill-rule="evenodd" d="m399.991996,368.478673c0,0 -18.605333,5.006667 -29.241333,28.024c-10.638667,23.018666 -36.542666,95.681332 -43.021333,116.067999c-6.478667,20.386666 17.032,107.619999 47.004,154.095998l39.384,0c0,0 -38.045333,-116.283865 -39.682666,-127.463999c-1.634667,-11.177333 36.001333,-76.282666 36.001333,-76.282666c10.38,-32.612 9.752,-65.179999 -10.444,-94.441332" id="path338"/>
  <path fill="#357abf" fill-rule="evenodd" d="m327.866663,536.912005c4.897333,35.119733 24,94.297332 46.866666,129.754665l18.092,0c0.322667,-0.440104 7.374667,-37.0172 7.705333,-40.826533c-7.106667,5.021333 -13.117333,10.6692 -28.610666,5.5292c-19.597333,-6.5016 -38.926666,-65.909466 -44.053333,-94.457332" id="path340"/>
  <path fill="#357abf" fill-rule="evenodd" d="m375.171996,542.553071c-0.38,-1.500933 -0.632,-2.638533 -0.737333,-3.3504c-0.961333,-6.56 10.333333,-30.734666 20.878666,-50.378666c1.658667,-3.093333 2.952,29.833333 4.453333,27.106666c-0.536,-6.422667 0.705333,-47.244 0.645333,-47.541333c-0.378667,-1.809333 -26.273333,50.801333 -27.785333,54.910666c-1.510667,4.109333 2.542667,19.253066 2.542667,19.253066l0.002667,0" id="path342"/>
  <path fill="#357abf" fill-rule="evenodd" d="m388.075996,374.77734c5.306667,15.049333 20.172,64.769333 6.001333,115.986665c-0.1,0.365333 0.114667,0.730667 0.493333,0.881333c0.728,-1.373333 1.452,-2.728 2.164,-4.058667c12.833333,-50.999999 -2.130667,-99.761332 -7.169333,-113.865332c-0.486667,0.332 -0.986667,0.685333 -1.489333,1.056" id="path344"/>
  <path fill="#357abf" fill-rule="evenodd" d="m541.146661,347.62934l15.494667,5.804c4.213333,9.390667 18.798666,42.076 18.150666,43.2c-0.753333,1.317333 -22.868,5.096 -22.868,5.096c0,0 16.916,6.985333 17.482666,7.398667c0.566667,0.409333 1.512,1.149333 1.136,3.614667c-0.330667,2.144 -34.781333,155.335998 -43.833333,195.577065l13.248,-258.382397c0,0 0.045333,-1.684 1.189333,-2.308" id="path346"/>
  <path fill="#eaf4fa" fill-rule="evenodd" d="m542.690661,396.996006l22.304,8.056c0,0 2.265333,1.233333 2.076,2.712c-0.186667,1.481333 -40.052,191.819865 -40.052,191.819865l7.161333,-200.553198l8.510667,-2.034667" id="path348"/>
  <path fill="#a2a9db" fill-rule="evenodd" d="m529.585328,526.437338l4.548,-127.406665l1.356,-0.324c-2.385333,51.898666 -5.9,127.879999 -5.9,127.879999l-0.004,-0.149333" id="path350"/>
  <path fill="#ffffff" fill-rule="evenodd" d="m540.035995,346.740007l11.518667,4.041333c0,0 1.006667,0.253333 1.330667,1.441333c0.322667,1.192 16.244,38.468 16.62,39.782666c0.382667,1.314667 -0.658667,2.713333 -2.833333,3.368c-2.172,0.658667 -32.68,8.96 -32.68,8.96l4.468,-55.906666c0,0 0.214667,-1.645333 1.576,-1.686667" id="path352"/>
  <path fill="#357abf" fill-rule="evenodd" d="m456.701329,348.518673l-14.409333,4.914667c-4.214667,9.390667 -18.8,42.076 -18.152,43.2c0.753333,1.317333 22.869333,5.096 22.869333,5.096c0,0 -16.917333,6.985333 -17.482666,7.398667c-0.566667,0.409333 -1.512,1.149333 -1.136,3.614667c0.330667,2.144 34.78,155.335998 43.833333,195.577065l-15.077333,-253.357064c0,0 0.698667,-5.82 -0.445333,-6.444" id="path354"/>
  <path fill="#eaf4fa" fill-rule="evenodd" d="m456.241329,396.996006l-22.302666,8.056c0,0 -2.266667,1.233333 -2.077333,2.712c0.188,1.481333 40.050666,191.819865 40.050666,191.819865l-7.16,-200.553198l-8.510667,-2.034667" id="path356"/>
  <path fill="#a2a9db" fill-rule="evenodd" d="m469.347995,526.437338l-4.548,-127.406665l-1.356,-0.324c2.386667,51.898666 5.897333,127.879999 5.897333,127.879999l0.006667,-0.149333" id="path358"/>
  <path fill="#ffffff" fill-rule="evenodd" d="m459.367995,347.406673l-11.989333,3.374667c0,0 -1.008,0.253333 -1.330667,1.441333c-0.324,1.192 -16.242667,38.468 -16.621333,39.782666c-0.381333,1.314667 0.658667,2.713333 2.833333,3.368c2.173333,0.658667 32.681333,8.96 32.681333,8.96c0,0 -4.684,-44.037333 -5.573333,-56.926666" id="path360"/>
  <path fill="#f46a5d" fill-rule="evenodd" d="m557.174661,251.520008c0.430667,0.061333 0.850667,0.133333 1.269333,0.224l0.013333,0.004l-0.004,-0.001333c7.714667,1.672 13.533333,8.488 13.633333,16.714666c0.112,9.562667 -7.545333,17.408 -17.108,17.522666c-9.562667,0.113333 -17.409333,-7.544 -17.524,-17.104c-0.069333,-5.56 2.489333,-10.536 6.522667,-13.752c-0.476,5.109333 0.293333,11.441333 6.812,12.121333l-0.12,-9.985333c-0.049333,-4.042667 3.734667,-5.874667 6.505333,-5.744" id="path362"/>
  <path fill="#f46a5d" fill-rule="evenodd" d="m443.061329,251.502674c-0.428,0.054667 -0.850667,0.122667 -1.269333,0.205333l-0.013333,0.005333l0,-0.001333c-7.734667,1.564 -13.645333,8.298667 -13.861333,16.522666c-0.248,9.56 7.305333,17.513333 16.861333,17.76c9.561333,0.248 17.513333,-7.302667 17.761333,-16.86c0.145333,-5.557333 -2.344,-10.569333 -6.332,-13.841333c0.406667,5.114667 -0.450667,11.436 -6.98,12.025333l0.258667,-9.982667c0.105333,-4.041333 -3.652,-5.925333 -6.425333,-5.833333" id="path364"/>
  <path fill="#f89b6f" fill-rule="evenodd" d="m500.002662,338.234673c-32.322666,0 -59.290666,-39.886666 -59.290666,-71.377333l0,-41.834666c0,-32.608 26.682666,-59.285333 59.283999,-59.285333l0.006667,0c32.602666,0 59.285333,26.677333 59.285333,59.285333l0,40.948c0,34.512 -23.524,72.263999 -59.285333,72.263999" id="path366"/>
  <path fill="#f35f66" fill-rule="evenodd" d="m441.386662,212.585341c4.322667,-28.428 29.029333,-50.390666 58.609333,-50.390666l0.006667,0c28.636,0 52.703999,20.584 58.133333,47.689333c-8.206667,0.018667 -17.344,10.349333 -17.344,10.349333c-55.418666,26.390666 -89.583999,0.245333 -89.583999,0.245333c-3.922667,-2.533333 -7.166667,-5.176 -9.821333,-7.893333" id="path368"/>
  <path fill="#f35f66" fill-rule="evenodd" d="m540.699995,265.308007c-5.518667,0.104 -9.909333,4.661333 -9.809333,10.177333c0.104,5.52 4.662667,9.912 10.178667,9.809333c5.518667,-0.102667 9.910667,-4.658667 9.808,-10.177333c-0.101333,-5.517333 -4.658667,-9.909333 -10.177333,-9.809333" id="path370"/>
  <path fill="#f35f66" fill-rule="evenodd" d="m458.930662,266.900007c-5.517333,0.102667 -9.909333,4.658667 -9.808,10.177333c0.102667,5.517333 4.66,9.910667 10.177333,9.808c5.518667,-0.102667 9.909333,-4.66 9.806667,-10.177333c-0.102667,-5.518667 -4.657333,-9.909333 -10.176,-9.808" id="path372"/>
  <path fill="#1e2348" fill-rule="evenodd" d="m480.310662,237.806674c1.249333,0.566667 1.802667,2.042667 1.237333,3.289333c-0.566667,1.246667 -2.04,1.802667 -3.288,1.236c-0.02,-0.009333 -7.510667,-3.552 -14.658667,0.944c-1.165333,0.730667 -2.708,0.38 -3.44,-0.784c-0.730667,-1.164 -0.381333,-2.706667 0.784,-3.438667c9.444,-5.938667 19.34,-1.257333 19.365333,-1.246667" id="path374"/>
  <path fill="#1e2348" fill-rule="evenodd" d="m538.941328,238.914674c1.196,0.666667 1.629333,2.18 0.964,3.377333c-0.666667,1.197333 -2.18,1.630667 -3.376,0.964c-0.021333,-0.009333 -7.198667,-4.149333 -14.690667,-0.252c-1.218667,0.636 -2.728,0.158667 -3.362667,-1.06c-0.634667,-1.218667 -0.158667,-2.726667 1.062667,-3.362667c9.890667,-5.150667 19.374666,0.32 19.402666,0.333333" id="path376"/>
  <path fill="#f9af89" fill-rule="evenodd" d="m501.594662,268.197341c1.106667,3 3.037333,8.432 2.872,9.342667c-0.232,1.274667 -6.797333,2.452 -8.522667,0.777333c-1.146667,-1.116 0.277333,-6.014667 1.522667,-9.313333c1.696,-4.496 2.64,-4.846667 4.128,-0.806667" id="path378"/>
  <path fill="#090e13" fill-rule="evenodd" d="m512.459995,291.89334c0,6.881333 -5.58,12.458667 -12.458667,12.458667c-6.881333,0 -12.458667,-5.577333 -12.458667,-12.458667c0,-1.262667 1.028,-2.293333 2.290667,-2.293333l20.330666,0c1.262667,0 2.296,1.030667 2.296,2.293333" id="path380"/>
  <path fill="#ffffff" fill-rule="evenodd" d="m491.089328,289.60134l17.82,0l0,2.105333c0,1.098667 -0.898667,1.996 -1.994667,1.996l-13.828,0c-1.098667,0 -1.997333,-0.897333 -1.997333,-1.996l0,-2.105333" id="path382"/>
  <path fill="#f1476f" fill-rule="evenodd" d="m509.027995,300.47734c-2.268,2.385333 -5.473333,3.874667 -9.026667,3.874667c-3.553333,0 -6.758667,-1.489333 -9.029333,-3.874667c2.270667,-2.385333 5.476,-3.874667 9.029333,-3.874667c3.553333,0 6.758667,1.489333 9.026667,3.874667" id="path384"/>
  <path fill="#1e2348" fill-rule="evenodd" d="m471.002662,263.908007c3.932,0 7.141333,-3.209333 7.141333,-7.14c0,-3.934667 -3.209333,-7.14 -7.141333,-7.14c-3.934667,0 -7.141333,3.205333 -7.141333,7.14c0,3.930667 3.206667,7.14 7.141333,7.14" id="path386"/>
  <path fill="#1e2348" fill-rule="evenodd" d="m528.997328,263.908007c3.932,0 7.14,-3.209333 7.14,-7.14c0,-3.934667 -3.208,-7.14 -7.14,-7.14c-3.934667,0 -7.14,3.205333 -7.14,7.14c0,3.930667 3.205333,7.14 7.14,7.14" id="path388"/>
  <path fill="#1e2348" fill-rule="evenodd" d="m440.711996,265.200007l5.728,-23.193333c0,0 18.453333,-13.537333 11.896,-32.377333c-6.554667,-18.841333 -7.838667,-16.974666 -7.838667,-16.974666c0,0 -24.590666,11.074667 -13.645333,61.011999l3.86,11.533333" id="path390"/>
  <path fill="#1e2348" fill-rule="evenodd" d="m559.285328,265.200007l-5.728,-23.193333c0,0 -18.450666,-13.537333 -11.896,-32.377333c6.556,-18.841333 7.841333,-16.974666 7.841333,-16.974666c0,0 24.589333,11.074667 13.644,61.011999l-3.861333,11.533333" id="path392"/>
  <path fill="#95cdd8" fill-rule="evenodd" d="m546.046661,277.001341c-0.142667,0.476 -0.646667,0.748 -1.121333,0.605333c-0.477333,-0.14 -0.749333,-0.642667 -0.606667,-1.12c0.014667,-0.052 4.556,-15.446667 12.358667,-21.849333l0.469333,1.906667c-6.896,6.212 -11.088,20.408 -11.1,20.457333" id="path394"/>
  <path fill="#95cdd8" fill-rule="evenodd" d="m543.845328,312.650674c-0.493333,0.054667 -0.938667,-0.301333 -0.992,-0.796c-0.054667,-0.493333 0.302667,-0.938667 0.796,-0.994667l0.314667,-0.034667c5.376,-0.670667 9.774667,-5.626667 12.730667,-11.625333c2.286667,-4.638667 3.694667,-9.874667 4.038667,-14.269333c0.633333,-0.232 1.250667,-0.501333 1.845333,-0.804c-0.224,4.814667 -1.729333,10.710667 -4.269333,15.870667c-3.198667,6.486667 -8.054667,11.86 -14.126667,12.616l-0.337333,0.037333" id="path396"/>
  <path fill="#95cdd8" fill-rule="evenodd" d="m453.961329,277.001341c0.142667,0.476 0.644,0.748 1.121333,0.605333c0.476,-0.14 0.748,-0.642667 0.606667,-1.12c-0.017333,-0.052 -4.557333,-15.446667 -12.36,-21.849333l-0.472,1.906667c6.9,6.212 11.090667,20.408 11.104,20.457333" id="path398"/>
  <path fill="#95cdd8" fill-rule="evenodd" d="m456.158662,312.650674c0.494667,0.054667 0.941333,-0.301333 0.996,-0.796c0.053333,-0.493333 -0.302667,-0.938667 -0.796,-0.994667l-0.318667,-0.034667c-5.373333,-0.670667 -9.772,-5.626667 -12.728,-11.625333c-2.284,-4.638667 -3.697333,-9.874667 -4.037333,-14.269333c-0.634667,-0.232 -1.252,-0.501333 -1.849333,-0.804c0.225333,4.814667 1.732,10.710667 4.272,15.870667c3.197333,6.486667 8.054667,11.86 14.124,12.616l0.337333,0.037333" id="path400"/>
  <path fill="#ffffff" fill-rule="evenodd" d="m500.001328,270.109341l46.177333,2.465333c0,0 1.845333,0.532 1.790667,2.226667c-0.054667,1.697333 -1.672,34.414666 -1.672,34.414666c0,0 -0.078667,2.942667 -1.909333,5.489333c-1.829333,2.546667 -16.362667,26.496 -44.386666,26.496c-28.026666,0 -42.558666,-23.949333 -44.390666,-26.496c-1.828,-2.546667 -1.908,-5.489333 -1.908,-5.489333c0,0 -1.616,-32.717333 -1.672,-34.414666c-0.056,-1.694667 1.789333,-2.226667 1.789333,-2.226667l46.181333,-2.465333" id="path402"/>
  <path fill="#c3e5e8" fill-rule="evenodd" d="m500.002662,273.661341l-44.376,2.370667c0.390667,10.989333 1.133333,22.034666 1.624,33.025333c0.053333,1.170667 0.568,2.636 1.245333,3.578667c1.236,1.72 2.34,3.401333 3.670667,5.084c2.429333,3.076 5.148,5.942667 8.126667,8.493333c8.473333,7.254667 18.458666,11.44 29.709333,11.44c11.252,0 21.236,-4.185333 29.712,-11.44c2.976,-2.550667 5.694667,-5.417333 8.126667,-8.493333c1.329333,-1.682667 2.432,-3.364 3.668,-5.084c0.678667,-0.942667 1.192,-2.408 1.244,-3.578667c0.493333,-10.990667 1.238667,-22.036 1.626667,-33.025333l-44.377333,-2.370667" id="path404"/>
  <path fill="#95cdd8" fill-rule="evenodd" d="m542.898661,305.988007c0.152,-3.148 0.322667,-6.3 0.490667,-9.453333l-30.524,-2.132l30.033333,11.585333zm-85.713332,1.616l0.065333,1.453333c0.053333,1.170667 0.568,2.636 1.245333,3.578667c1.236,1.72 2.34,3.401333 3.670667,5.084c2.429333,3.076 5.148,5.942667 8.126667,8.493333c8.473333,7.254667 18.458666,11.44 29.709333,11.44c11.252,0 21.236,-4.185333 29.712,-11.44c2.976,-2.550667 5.694667,-5.417333 8.126667,-8.493333c1.329333,-1.682667 2.432,-3.364 3.668,-5.084c0.186667,-0.258667 0.36,-0.554667 0.514667,-0.873333c0,0 -7.194667,7.785333 -32.181333,7.785333c-24.986666,0 -52.657333,-11.944 -52.657333,-11.944zm-0.904,-17.294666c0.228,4.294667 0.469333,8.592 0.688,12.885333l40.936,-15.793333l-41.624,2.908l0,0" id="path406"/>
  <path fill="#1e2348" fill-rule="evenodd" d="m457.218662,215.601341c0,0 31.713333,26.142666 83.157332,-0.246667c0,0 13.196,-16.076 21.449333,-8.162667c0,0 3.245333,-44.369333 -28.638666,-44.814666c0,0 5.756,-6.22 4.112,-11.256c-1.642667,-5.036 -15.096,-17.141333 -43.450666,0.786667c0,0 -2.130667,-13.081333 -12.726667,-13.504c-20.58,-0.816 -68.271999,46.346666 -23.902666,77.197333" id="path408"/>
  <path fill="#357abf" fill-rule="evenodd" d="m624.82666,542.553071c0.381333,-1.500933 0.632,-2.639467 0.734667,-3.3504c0.978667,-6.684 -10.18,-31.062666 -20.841333,-50.859999c-1.448,-2.688 -4.757333,44.277333 -6.076,41.878666c0.534667,-6.422667 0.882667,-61.534666 0.944,-61.831999c0.376,-1.806667 26.270666,50.801333 27.782666,54.910666c1.512,4.109333 -2.542667,19.253066 -2.542667,19.253066l-0.001333,0" id="path410"/>
 </g>
</svg>